<svg id="Capa_1" data-name="Capa 1" xmlns="http://www.w3.org/2000/svg" viewBox="0 0 801 1001"><defs><style>.cls-1,.cls-5{fill:#fff;}.cls-1,.cls-2{stroke:#1d1d1b;stroke-miterlimit:10;}.cls-2{fill:#282a36;}.cls-3{font-size:27.94px;fill:#7dbe6c;font-family:MyriadPro-Regular, Myriad Pro;}.cls-4{letter-spacing:-0.01em;}.cls-6{letter-spacing:-0.06em;}.cls-7{letter-spacing:0em;}.cls-8{letter-spacing:0em;}.cls-9{letter-spacing:0em;}.cls-10{letter-spacing:-0.01em;}.cls-11{letter-spacing:-0.01em;}.cls-12{letter-spacing:-0.01em;}.cls-13{letter-spacing:-0.01em;}.cls-14{letter-spacing:-0.07em;}.cls-15{letter-spacing:-0.01em;}.cls-16{letter-spacing:-0.01em;}</style></defs><rect class="cls-1" x="0.5" y="0.5" width="800" height="1000"/><rect class="cls-2" x="0.5" y="0.5" width="800" height="1000"/><text class="cls-3" transform="translate(112.63 46.59) scale(0.99 1)">&lt;table bo<tspan class="cls-4" x="113.02" y="0">r</tspan><tspan x="121.88" y="0">der=&quot;1&quot;&gt;</tspan><tspan class="cls-5"><tspan x="0" y="33.53">      &lt;caption&gt;</tspan><tspan class="cls-6" x="157.36" y="33.53">T</tspan><tspan x="169.46" y="33.53">abla de </tspan><tspan class="cls-7" x="260.49" y="33.53">M</tspan><tspan class="cls-8" x="283.04" y="33.53">uest</tspan><tspan class="cls-9" x="332.74" y="33.53">r</tspan><tspan x="341.74" y="33.53">a&lt;/caption&gt;</tspan><tspan x="0" y="67.06" xml:space="preserve">     &lt;thead&gt;</tspan><tspan x="0" y="100.59">        &lt;tr&gt;</tspan><tspan x="0" y="134.12">          &lt;th&gt;Encabezado 1&lt;/th&gt;</tspan><tspan x="0" y="167.65">          &lt;th&gt;Encabezado 2&lt;/th&gt;</tspan><tspan x="0" y="201.18">          &lt;th&gt;Encabezado 3&lt;/th&gt;</tspan><tspan x="0" y="234.7">        &lt;/tr&gt;</tspan><tspan x="0" y="268.23">      &lt;/thead&gt;</tspan><tspan x="0" y="335.29">      &lt;tbody&gt;        </tspan><tspan x="0" y="368.82">        &lt;tr&gt;</tspan><tspan x="0" y="402.35">          &lt;</tspan><tspan class="cls-10" x="75.88" y="402.35">t</tspan><tspan x="84.97" y="402.35">d&gt;</tspan><tspan class="cls-11" x="117.38" y="402.35">C</tspan><tspan x="133.28" y="402.35">elda A1&lt;/</tspan><tspan class="cls-12" x="246.69" y="402.35">t</tspan><tspan class="cls-8" x="255.77" y="402.35">d&gt;</tspan><tspan x="0" y="435.88">          &lt;</tspan><tspan class="cls-10" x="75.88" y="435.88">t</tspan><tspan x="84.97" y="435.88">d&gt;</tspan><tspan class="cls-11" x="117.38" y="435.88">C</tspan><tspan x="133.28" y="435.88">elda A2&lt;/</tspan><tspan class="cls-12" x="246.69" y="435.88">t</tspan><tspan class="cls-8" x="255.77" y="435.88">d&gt;</tspan><tspan x="0" y="469.41">          &lt;</tspan><tspan class="cls-10" x="75.88" y="469.41">t</tspan><tspan x="84.97" y="469.41">d&gt;</tspan><tspan class="cls-11" x="117.38" y="469.41">C</tspan><tspan x="133.28" y="469.41">elda A3&lt;/</tspan><tspan class="cls-12" x="246.69" y="469.41">t</tspan><tspan class="cls-8" x="255.77" y="469.41">d&gt;</tspan><tspan x="0" y="502.94">        &lt;/tr&gt;</tspan><tspan x="0" y="536.47">        &lt;tr&gt;</tspan><tspan x="0" y="570">          &lt;</tspan><tspan class="cls-10" x="75.88" y="570">t</tspan><tspan x="84.97" y="570">d&gt;</tspan><tspan class="cls-11" x="117.38" y="570">C</tspan><tspan x="133.28" y="570">elda B1&lt;/</tspan><tspan class="cls-12" x="244.73" y="570">t</tspan><tspan class="cls-8" x="253.81" y="570">d&gt;</tspan><tspan x="0" y="603.53">          &lt;</tspan><tspan class="cls-10" x="75.88" y="603.53">t</tspan><tspan x="84.97" y="603.53">d&gt;</tspan><tspan class="cls-11" x="117.38" y="603.53">C</tspan><tspan x="133.28" y="603.53">elda B2&lt;/</tspan><tspan class="cls-12" x="244.73" y="603.53">t</tspan><tspan class="cls-8" x="253.81" y="603.53">d&gt;</tspan><tspan x="0" y="637.06">          &lt;</tspan><tspan class="cls-10" x="75.88" y="637.06">t</tspan><tspan x="84.97" y="637.06">d&gt;</tspan><tspan class="cls-11" x="117.38" y="637.06">C</tspan><tspan x="133.28" y="637.06">elda B3&lt;/</tspan><tspan class="cls-12" x="244.73" y="637.06">t</tspan><tspan class="cls-8" x="253.81" y="637.06">d&gt;</tspan><tspan x="0" y="670.58">        &lt;/tr&gt;</tspan><tspan x="0" y="704.11">      &lt;/tbody&gt;</tspan><tspan x="0" y="771.17">      &lt;t</tspan><tspan class="cls-13" x="61.44" y="771.17">f</tspan><tspan class="cls-8" x="69.24" y="771.17">oot&gt;</tspan><tspan x="0" y="804.7">        &lt;tr&gt;</tspan><tspan x="0" y="838.23">          &lt;</tspan><tspan class="cls-10" x="75.88" y="838.23">t</tspan><tspan x="84.97" y="838.23">d </tspan><tspan class="cls-12" x="106.65" y="838.23">c</tspan><tspan x="119" y="838.23">olspan=&quot;3&quot;&gt;</tspan><tspan class="cls-14" x="263.34" y="838.23">T</tspan><tspan class="cls-8" x="275.24" y="838.23">otal de </tspan><tspan class="cls-15" x="361.49" y="838.23">c</tspan><tspan x="373.84" y="838.23">eldas&lt;/</tspan><tspan class="cls-10" x="460.96" y="838.23">t</tspan><tspan x="470.04" y="838.23">d&gt;</tspan><tspan x="0" y="871.76">        &lt;/tr&gt;</tspan><tspan x="0" y="905.29">      &lt;/t</tspan><tspan class="cls-16" x="71.02" y="905.29">f</tspan><tspan x="78.82" y="905.29">oot&gt;</tspan></tspan><tspan x="0" y="938.82">&lt;/table&gt;</tspan></text></svg>