<svg id="Capa_1" data-name="Capa 1" xmlns="http://www.w3.org/2000/svg" viewBox="0 0 812.64 358.83"><defs><style>.cls-1{fill:#fff;stroke:#1d1d1b;stroke-miterlimit:10;}.cls-2{font-size:22.84px;letter-spacing:-0.01em;}.cls-2,.cls-4,.cls-6,.cls-7{fill:#1d1d1b;}.cls-2,.cls-4,.cls-6{font-family:MyriadPro-Regular, Myriad Pro;}.cls-3{letter-spacing:0em;}.cls-4{font-size:22.39px;letter-spacing:-0.03em;}.cls-5{letter-spacing:0em;}.cls-6{font-size:31.09px;}</style></defs><rect class="cls-1" x="421.14" y="137.33" width="130.33" height="44.2"/><rect class="cls-1" x="551.47" y="137.33" width="130.33" height="44.2"/><rect class="cls-1" x="681.8" y="137.33" width="130.33" height="44.2"/><rect class="cls-1" x="421.14" y="181.53" width="130.33" height="44.2"/><rect class="cls-1" x="551.47" y="181.53" width="130.33" height="44.2"/><rect class="cls-1" x="681.8" y="181.53" width="130.33" height="44.2"/><rect class="cls-1" x="421.14" y="225.73" width="130.33" height="44.2"/><rect class="cls-1" x="551.47" y="225.73" width="130.33" height="44.2"/><rect class="cls-1" x="681.8" y="225.73" width="130.33" height="44.2"/><rect class="cls-1" x="421.14" y="269.93" width="130.33" height="44.2"/><rect class="cls-1" x="551.47" y="269.93" width="130.33" height="44.2"/><rect class="cls-1" x="681.8" y="269.93" width="130.33" height="44.2"/><rect class="cls-1" x="421.14" y="314.13" width="130.33" height="44.2"/><rect class="cls-1" x="551.47" y="314.13" width="130.33" height="44.2"/><rect class="cls-1" x="681.8" y="314.13" width="130.33" height="44.2"/><text class="cls-2" transform="translate(437.93 168.44) scale(0.93 1)">C<tspan class="cls-3" x="13" y="0">olumna 1</tspan></text><text class="cls-4" transform="translate(457.9 212.39) scale(1.13 1)">F<tspan class="cls-5" x="10.32" y="0">ila 1</tspan></text><text class="cls-4" transform="translate(457.65 258.27) scale(1.13 1)">F<tspan class="cls-5" x="10.32" y="0">ila 2</tspan></text><text class="cls-4" transform="translate(459.57 302.11) scale(1.13 1)">F<tspan class="cls-5" x="10.32" y="0">ila 3</tspan></text><text class="cls-4" transform="translate(459.57 345.58) scale(1.13 1)">F<tspan class="cls-5" x="10.32" y="0">ila 4</tspan></text><text class="cls-2" transform="translate(568.46 168.44) scale(0.93 1)">C<tspan class="cls-3" x="13" y="0">olumna 2</tspan></text><text class="cls-2" transform="translate(698.41 168.45) scale(0.93 1)">C<tspan class="cls-3" x="13" y="0">olumna 3</tspan></text><text class="cls-2" transform="translate(0 169.7) scale(0.93 1)">C<tspan class="cls-3" x="13" y="0">olumna 1</tspan></text><text class="cls-4" transform="translate(19.98 213.64) scale(1.13 1)">F<tspan class="cls-5" x="10.32" y="0">ila 1</tspan></text><text class="cls-4" transform="translate(19.72 259.52) scale(1.13 1)">F<tspan class="cls-5" x="10.32" y="0">ila 2</tspan></text><text class="cls-4" transform="translate(21.64 303.36) scale(1.13 1)">F<tspan class="cls-5" x="10.32" y="0">ila 3</tspan></text><text class="cls-4" transform="translate(21.64 346.84) scale(1.13 1)">F<tspan class="cls-5" x="10.32" y="0">ila 4</tspan></text><text class="cls-2" transform="translate(130.53 169.7) scale(0.93 1)">C<tspan class="cls-3" x="13" y="0">olumna 2</tspan></text><text class="cls-2" transform="translate(260.48 169.7) scale(0.93 1)">C<tspan class="cls-3" x="13" y="0">olumna 3</tspan></text><text class="cls-6" transform="translate(104.51 107.04) scale(0.91 1)">Sin boder</text><path class="cls-7" d="M575.35,39.49a11.25,11.25,0,0,1-5,1c-5.38,0-9.43-3.73-9.43-10.6,0-6.56,4-11,10-11a9.34,9.34,0,0,1,4.53.94l-.59,2.2a8.27,8.27,0,0,0-3.85-.87c-4.47,0-7.44,3.14-7.44,8.64,0,5.13,2.68,8.43,7.33,8.43a9.22,9.22,0,0,0,4-.87Z" transform="translate(-8.39 69.79)"/><path class="cls-7" d="M590.44,32.53c0,5.56-3.51,8-6.82,8-3.71,0-6.57-3-6.57-7.74,0-5,3-8,6.79-8S590.44,27.93,590.44,32.53Zm-10.87.15c0,3.3,1.72,5.78,4.16,5.78s4.16-2.45,4.16-5.84c0-2.55-1.16-5.78-4.11-5.78S579.57,29.82,579.57,32.68Z" transform="translate(-8.39 69.79)"/><path class="cls-7" d="M593.58,29.2c0-1.55,0-2.83-.11-4.07h2.21l.14,2.49h0a5,5,0,0,1,4.53-2.83c1.9,0,4.84,1.24,4.84,6.4v9h-2.49V31.5c0-2.42-.82-4.44-3.17-4.44a3.61,3.61,0,0,0-3.34,2.79,4.46,4.46,0,0,0-.17,1.28v9h-2.49Z" transform="translate(-8.39 69.79)"/><path class="cls-7" d="M615.18,40.17c.06-1,.12-2.54.12-3.88V18.11h2.46v9.44h.06a5,5,0,0,1,4.67-2.76c3.39,0,5.8,3.11,5.77,7.68,0,5.37-3.08,8.05-6.14,8.05a4.82,4.82,0,0,1-4.59-2.83h-.08l-.12,2.48Zm2.58-6a6.25,6.25,0,0,0,.11,1,3.94,3.94,0,0,0,3.74,3.2c2.6,0,4.16-2.33,4.16-5.78,0-3-1.42-5.6-4.08-5.6a4.08,4.08,0,0,0-3.79,3.36,5.59,5.59,0,0,0-.14,1.12Z" transform="translate(-8.39 69.79)"/><path class="cls-7" d="M643.8,32.53c0,5.56-3.51,8-6.82,8-3.71,0-6.56-3-6.56-7.74,0-5,3-8,6.79-8S643.8,27.93,643.8,32.53Zm-10.87.15c0,3.3,1.73,5.78,4.17,5.78s4.16-2.45,4.16-5.84c0-2.55-1.16-5.78-4.11-5.78S632.93,29.82,632.93,32.68Z" transform="translate(-8.39 69.79)"/><path class="cls-7" d="M647,29.82c0-1.77,0-3.29-.11-4.69H649l.08,2.95h.11a4.21,4.21,0,0,1,3.8-3.29,2.48,2.48,0,0,1,.7.09v2.58a3.49,3.49,0,0,0-.84-.09c-1.76,0-3,1.46-3.34,3.51a8,8,0,0,0-.12,1.27v8H647Z" transform="translate(-8.39 69.79)"/><path class="cls-7" d="M667.76,18.11V36.29c0,1.34,0,2.86.11,3.88h-2.24l-.11-2.61h-.06a5,5,0,0,1-4.67,3c-3.31,0-5.86-3.08-5.86-7.65,0-5,2.81-8.08,6.15-8.08a4.49,4.49,0,0,1,4.13,2.3h.06v-9Zm-2.49,13.14a5.05,5.05,0,0,0-.12-1.15,3.76,3.76,0,0,0-3.59-3.17c-2.58,0-4.11,2.49-4.11,5.82,0,3,1.36,5.56,4,5.56a3.84,3.84,0,0,0,3.65-3.26,5,5,0,0,0,.12-1.19Z" transform="translate(-8.39 69.79)"/><path class="cls-7" d="M673.28,33.15c.06,3.7,2.21,5.22,4.7,5.22a8.23,8.23,0,0,0,3.79-.78l.43,2a10.18,10.18,0,0,1-4.56.94c-4.22,0-6.74-3.05-6.74-7.59s2.44-8.11,6.43-8.11c4.47,0,5.66,4.32,5.66,7.09a10.76,10.76,0,0,1-.09,1.27Zm7.3-2c0-1.74-.65-4.44-3.45-4.44-2.52,0-3.62,2.55-3.82,4.44Z" transform="translate(-8.39 69.79)"/><path class="cls-7" d="M686.08,29.82c0-1.77,0-3.29-.12-4.69h2.18l.09,2.95h.11a4.19,4.19,0,0,1,3.79-3.29,2.5,2.5,0,0,1,.71.09v2.58a3.52,3.52,0,0,0-.85-.09c-1.75,0-3,1.46-3.34,3.51a9.39,9.39,0,0,0-.11,1.27v8h-2.46Z" transform="translate(-8.39 69.79)"/><text x="-8.39" y="69.79"/></svg>