<svg id="Capa_1" data-name="Capa 1" xmlns="http://www.w3.org/2000/svg" viewBox="0 0 500.47 201.61"><defs><style>.cls-1{fill:#1b3862;fill-rule:evenodd;}</style></defs><path class="cls-1" d="M17.28,151.4a128.27,128.27,0,0,0-16.07,5.21V175c0,5.29-.55,4.1,5.28,4.25,31.51,1,48.37,5,72.09,18.85a37.56,37.56,0,0,0-5.2-15.72c-15.84-10.95-30.73-16.32-50.19-17.59,55.31-12.51,104.87,37.63,86.51,89.4-4.49-1.12-13.55-4.47-22,2.24,4.1,10.73.79,27.49-14.34,26.52.55,4.92-2.29,11.62-9.93,17.06-10.71,6.18-27.26,8.27-35.53,3.65-10.24,1.56-17.73-1.27-26.55-5.44v8.87c4.8,3,10.32,4.61,16,5.88l4,17.06c.94,1.86,2.68,2.83,5.28,2.83H53.92a5.39,5.39,0,0,0,5-2.83l3.86-17.58a87,87,0,0,0,10.64-3.35l14.1,11.77a5.31,5.31,0,0,0,5.75-.6L114,305.76a5.27,5.27,0,0,0,2.2-5.07l-7.72-16.09A86.58,86.58,0,0,0,114.9,276l18.83,1.64c2,0,3.31-1.19,4.18-3.65l7.8-23.24c.71-2.09.39-3.88-1.26-5.22l-16.39-8.79a77.83,77.83,0,0,0-.08-10.58l16.23-9.09c1.81-.89,2-2.83,1-5.44l-8.12-23.09a4.15,4.15,0,0,0-4.18-3.5l-18.83,2a88.43,88.43,0,0,0-6.61-8.49L115,162.27c.55-1.94,0-3.65-2.36-4.91l-21-14.16c-2-1.34-3.94-1.71-5.75-.52L72,154.67a102.85,102.85,0,0,0-10.64-3.2L57.31,134c-.63-2-2.29-2.91-5.12-2.76H26.5c-3,.08-4.41,1.27-5,2.76l-4.1,17.36ZM47.54,226H49.9a.5.5,0,0,1,.47.45v.82a.5.5,0,0,1-.47.45H47.54a.51.51,0,0,1-.48-.45v-.82a.51.51,0,0,1,.48-.45m6.14-37.17a6.92,6.92,0,0,1,5.2,8.49,7.3,7.3,0,0,1-9,4.92,6.93,6.93,0,0,1-5.2-8.5,7.4,7.4,0,0,1,9-4.91m1.58,2.9a2.06,2.06,0,0,1,1.57,2.54,2.2,2.2,0,0,1-2.67,1.49,2.06,2.06,0,0,1-1.58-2.54,2.21,2.21,0,0,1,2.68-1.49m-6.54,30a5.07,5.07,0,1,1-5.36,5.06,5.17,5.17,0,0,1,5.36-5.06m0,2.53A2.53,2.53,0,1,1,46,226.86a2.59,2.59,0,0,1,2.68-2.53m14-30.55c5.36,2.17,10.8,4.4,15.92,7,0,1.11-.16,2.23-.24,3.35a55.84,55.84,0,0,1-2,8c-7.88-3.2-21.27-3.72-29.7-1.49a14.26,14.26,0,0,1-7.88-15.49c.16,0,1.34.37,2,.52.24,5.51,5.12,9.91,11,9.91s11-4.62,11-10.29,0-1-.08-1.41M56.6,226.64c-.08-4.62-3.78-7.23-8.35-8a60.18,60.18,0,0,0-13.79-.67c9.77-7.52,29.94-7.75,40.73-3.65-8.11.08-15.91,5-18.59,12.37M1.76,186.19c-.94-.08-1.1-4.4.16-4.4,15.13.37,27.89,1.27,42.62,5.59A9.72,9.72,0,0,0,41,193c-13-4.17-25.69-5.74-39.24-6.85m.16,7.59c-1.18-.14-1.18-5.51-.08-5.36,11.74,1.49,22.93,2.61,34.43,5.81a15.78,15.78,0,0,0-.08,6.63A284.56,284.56,0,0,0,2,193.78m-.08,9.54c-.95-.3-1.58-6.93.23-6.63,11.74,2,23.25,3.65,34.75,6.78,1.5,3.87,3.47,5.88,5.67,8.27-6.69,2.23-30.72-5.66-40.65-8.42m.23,15.87c-.94,0-2.91-13.41.63-12.44,11.19,3,22.85,6.26,34.12,7.45a32.91,32.91,0,0,0-5.59,3.72c-3.86,0-7.72,0-11.59.15-5.9.22-11.74.67-17.57,1.12m.24,9.39c-2.05,0-2-6.93,0-7.16a229.83,229.83,0,0,1,42.31-.89,7.19,7.19,0,0,0-1.58,11.4A180.91,180.91,0,0,0,2.47,228.5M1.21,242.36v-9.84a1.36,1.36,0,0,1,1-1.41c7.41-.9,16.39-.37,24,.37h.55c-7.65,3-18.91,9.31-23.64,12.22a1.68,1.68,0,0,1-1.58,0c-.39-.3-.23-.82-.23-1.27M58.8,243.7a24.28,24.28,0,0,1-7.4-9.76,7.63,7.63,0,0,0,4.41-3.73,17.2,17.2,0,0,0,3.07,11.7,10.62,10.62,0,0,0,.87,1.12c.94,1,.24,1.49-.87.67M25.32,298c-8.51.52-23.32-.38-26.47-9.54,9.37-20,21-39,35.69-56,1.1.15,2.2.37,3.38.52-9.45,21.16-12.21,42.09-12.6,65M2.78,271c-2.83,1.72-6.22-19.29,0-23.69,6.86-4.47,13.4-8.34,20.81-12.74l4.8-2.83c1,.15,2.05.23,3.15.38-.86,1-2.68,2.83-3,3.2-9,9.31-19.3,25.93-25.69,35.68m82.42-58.48c2.12.67-.4,7.38-2,7a5.86,5.86,0,0,0-4.49,1c1.1,2.17,3.7,7.53,4.57,11.11.31,1.34.71,4.46-.87,5.36-1.1.59-2.92.45-5.52.74l-.39,2.46c.16.37.63.45.63.75a2.61,2.61,0,0,1-2.6,1.71c.24.82.87,1.19.63,2.46-.16.82-1.73.89-2.76,1.41s-.55.82-1.18.9h-.39c-14.74-2.46-15.21-20-4.18-26.75l3.39,1.05c.94.29.87.37-.16.67a7.15,7.15,0,0,1-1.34.3c-1.18.22-1.26.22,0,.59,1.42.45,3.08.75,4.1,1.12.55.15.47.37.87-.15a1.87,1.87,0,0,0,.15-1.94,3.09,3.09,0,0,0,1.89-.37c1-.6.71-1-.39-.89a10.3,10.3,0,0,1-2.13.07l-4.72-1.27A14.41,14.41,0,0,1,77.79,217l1.74-6.18,5.75,1.94ZM73.85,250.55c4.49,3.65,11.27,1,7.57,3.58-12.14,8.71-29.94-6.41-32.31-19.07h1.58c2.52,5.14,3.23,7.15,8.43,10.87a18.4,18.4,0,0,0,9.37,3.36c3.24.29,2.76-.75,5.28,1.26M104,205.85c3,7.16,2.68,16.91-4.1,20.86-2.36,1.34-3.23-.15-1.57-1.79,1.34-1.26,1.26-4,.86-5.43-1.73-5.89-13.39-9.76-18.83-11.33,2.13-7.45,1-15-2.2-21.9,11,3,21.51,9.09,25.92,19.67M32.88,300.09c-1.73-17.8-.63-50.36,7.49-66.6,1.81.37,3.62.9,5.51,1.19,0,.3-.16,2.39-.16,2.54-1.65,24.06,8.36,39.33,23.17,46.33C67.23,299.2,46.36,302.7,33,300.09M84.88,258c3.47,5.59-1.81,20.49-9.06,21.76-19-3.8-30.49-28.09-28.76-44.93a2.62,2.62,0,0,1,.79.08,15.52,15.52,0,0,0,.55,2.68c3.55,13.19,21,27.64,36.4,20.34" transform="translate(1.15 -131.26)"/><path class="cls-1" d="M232.69,225.52v-19h-6.22v-5h17v5h-6.15v19Zm168.06-15.87V203c-4.1-3.5-9.69-3-13.24,1.41a14.4,14.4,0,0,0-2.91,9.09c0,3.43,1.26,7.68,3.86,10.13a8.73,8.73,0,0,0,12.21.3v-6.11c-2.68,2.83-7,4.55-9.85.9a10,10,0,0,1,0-10.73c2.29-3.13,5.83-2.53,8.35,0l1.5,1.71Zm-56.81-10.73,1.66-2-1.19-1.41-2.75,3.42Zm-67,10.73V203c-4.1-3.5-9.69-3-13.24,1.41a14.4,14.4,0,0,0-2.91,9.09c0,3.43,1.34,7.68,3.86,10.13,3.55,3.51,8.43,3.43,12.21.3v-6.11c-2.68,2.83-7.09,4.55-9.85.9a10,10,0,0,1,0-10.73c2.29-3.13,5.83-2.53,8.36,0l1.49,1.71Zm96.36,4.55v-2h-8.27V217h3.7v3.5a7.18,7.18,0,0,1-2.52.52c-3.63,0-5.91-3.35-5.91-7.75s.55-4,1.73-5.36a5.36,5.36,0,0,1,7.17-1.34,9.85,9.85,0,0,1,2.68,2.46l.47-6a11,11,0,0,0-3-1.71,9.44,9.44,0,0,0-10.79,3.05,14.3,14.3,0,0,0-3,9.24c0,7.38,4.34,12.74,10.32,12.74s5.13-1,7.41-2.46V214.2Zm3.94,11.32h4.65v-24h-4.65Zm-55.63-22v22h12.22v-5.14h-7.57V201.53h-4.65v2Zm-41.52,0v22h4.26V212.41l11.34,13.11h1.18v-24h-4.25v13.26l-11.42-13.26h-1.11Zm-33.72,0v22h12.13v-5.07H251v-4.76h4.41v-4.92H251v-4.32h7.49v-4.92h-12v2Zm53,10c0-7,4.25-12.82,9.92-12.82s9.93,5.81,9.93,12.82-4.17,12.81-9.93,12.81-9.92-5.89-9.92-12.81m4.8,0c0,3.72,1.89,7.37,5.12,7.37s5.13-3.65,5.13-7.37-1.9-7.38-5.13-7.38-5.12,3.65-5.12,7.38m29.55,0a17.1,17.1,0,0,1,.71-5c1.5-4.7,5.12-7.83,9.22-7.83,5.83,0,9.92,5.89,9.92,12.82s-4.17,12.81-9.92,12.81-9.93-6-9.93-12.81m4.81,0c0,3.72,1.89,7.37,5.12,7.37s5.12-3.65,5.12-7.37-1.89-7.38-5.12-7.38-5.12,3.65-5.12,7.38m73.58-12.82c4,0,7.73,3.13,9.22,7.75a16.82,16.82,0,0,1,.71,5c0,6.93-4.17,12.82-9.93,12.82s-9.92-5.89-9.92-12.74,4.09-12.82,9.92-12.82M407,213.53c0,3.72,1.89,7.37,5.12,7.37s5.13-3.65,5.13-7.37-1.9-7.38-5.13-7.38S407,209.8,407,213.53" transform="translate(1.15 -131.26)"/><path class="cls-1" d="M457.71,245.34c-2.6-2.39-6.3-3.06-8.74.07-2.21,2.76-2.29,7.9,0,10.65,2.91,3.66,7.48,1.87,10.32-.89v6a9.71,9.71,0,0,1-12.84-.3c-5.05-4.62-5.44-13.86-1-19.15a9.73,9.73,0,0,1,13.87-1.41V247l-1.58-1.72Zm-53.26-8.05.95-1.12-1.18-1.41L402,237.29h2.44Zm30.81,3.58v21.9h4.88V238.93h-4.88v1.94Zm-16.15,9.53-7.33,12.37h5.36l4.72-8.12,5,8.12h6l-8-12.81,6.62-11h-5.28l-3.94,6.78-4.26-6.78H413.2l6,11.55Zm-21.83-9.53v21.9H410v-5h-8v-4.7h4.81v-4.91H402v-4.32h7.88v-4.92H397.28v1.94Zm-22.14-2L371,262.7h4.33l1.81-11,5.44,11h1.26l5-10.88,1.73,10.88h4.65l-4.09-23.84h-.87l-6.93,14.75L376,238.86h-.87Zm90.85,12c0,3.65,2,7.3,5.43,7.3s5.44-3.58,5.44-7.3-2-7.38-5.44-7.38-5.43,3.66-5.43,7.38m-5.05,0c0-6.85,4.34-12.66,10.4-12.66s10.4,5.81,10.4,12.66-4.41,12.66-10.4,12.66-10.4-5.88-10.4-12.66" transform="translate(1.15 -131.26)"/><path class="cls-1" d="M325.74,240.57v21.75h5.44a12,12,0,0,0,7.09-1.79,11.46,11.46,0,0,0,5-10c0-4.4-1.1-6.56-3.23-8.72a12.27,12.27,0,0,0-8.9-3.2h-5.44v2Zm20.33,0v21.75h12.61v-5h-8v-4.69h5.12V247.8h-5.12v-4.33h7.8v-4.91H346v1.93Zm-47.83,21.75H311v-5.06h-8V238.63h-4.88v23.69Zm-22.37,0h4.88l1.34-3.42h8.28l1.26,3.42h5l-9.85-23.69h-.95l-10.08,23.69Zm7.64-7.52,2.68-7.45,2.68,7.45ZM256.8,240.57v21.75h4.49v-13l11.82,12.89h1.34V238.63H270v13.11l-12-13.11H256.8Zm-30.41,0v21.75h4.88V238.63h-4.88v1.94Zm-5.6,4.39c-2.6-2.38-6.3-3-8.66,0a8.3,8.3,0,0,0-1.66,5.37,7.94,7.94,0,0,0,1.66,5.29c2.91,3.57,7.48,1.86,10.24-.9v6c-3.94,3.05-9,3.13-12.76-.3a13.42,13.42,0,0,1-4-10.06c0-4,.94-6.55,3-9A9.64,9.64,0,0,1,222.37,240v6.63L220.79,245Zm-35,17.36h4.89L192,258.9h8.27l1.26,3.42h5.12l-9.85-23.69h-.94l-10.09,23.69Zm7.64-7.52,2.68-7.45,2.6,7.45h-5.28Zm-26.71,7.52V238.63h1.19l12,13.11V238.63h4.49v23.69h-1.34l-11.81-13v13ZM234,250.48c0-6.93,4.41-12.67,10.4-12.67s10.4,5.81,10.4,12.67-4.33,12.66-10.4,12.66S234,257.33,234,250.48m5,0c0,3.65,2,7.3,5.36,7.3s5.36-3.58,5.36-7.3-2-7.3-5.36-7.3-5.36,3.65-5.36,7.3m91.56,6.7V243.62h1.1a6.67,6.67,0,0,1,5,1.79,7.75,7.75,0,0,1,0,10,6.63,6.63,0,0,1-5,1.79Z" transform="translate(1.15 -131.26)"/><path class="cls-1" d="M492.77,251.37a6.2,6.2,0,1,1-.07,12.37,6.23,6.23,0,1,1,0-12.44m.07.89a5.6,5.6,0,0,0-5.67,5.36,5.44,5.44,0,0,0,5.6,5.37,5.37,5.37,0,1,0,0-10.73" transform="translate(1.15 -131.26)"/><path class="cls-1" d="M491.44,258.23v2.68h-1.27v-6.78h0a18,18,0,0,1,4,.15,1.8,1.8,0,0,1,1.18,2.83c-.23.3-.55.44-1.33.67a.31.31,0,0,1,.23.07,1.88,1.88,0,0,1,1.34,1.64v1.42h-1.1v-.6a4,4,0,0,0-.08-1,1.23,1.23,0,0,0-1.18-1,15.65,15.65,0,0,1-1.81-.07m0-.82h1.1a2.79,2.79,0,0,0,1.1-.15,1.08,1.08,0,0,0,.87-1.12,1,1,0,0,0-.79-1.12,8,8,0,0,0-2.28-.15v2.54Z" transform="translate(1.15 -131.26)"/></svg>