<svg id="Capa_1" data-name="Capa 1" xmlns="http://www.w3.org/2000/svg" viewBox="0 0 427.41 471.64"><defs><style>.cls-1{fill:#fff;}.cls-2,.cls-6{fill:#1c100c;}.cls-2,.cls-3,.cls-7{fill-rule:evenodd;}.cls-3,.cls-8{fill:#84152e;}.cls-4{fill:none;stroke:#661413;stroke-width:0.2px;}.cls-5,.cls-7{fill:#c0b191;}</style></defs><path class="cls-1" d="M243.83,478.69l-11-.87-10.78-1.39-10.6-1.92-10.26-2.43-10.08-2.95-9.9-3.48-9.74-3.82L162,457.48l-9.21-4.87-8.86-5.21-8.69-5.74L127,435.75l-8.17-6.43L111,422.54l-7.31-7.12-7.12-7.48-6.78-7.82L83.57,392l-5.91-8.51-5.56-8.7-5-9-4.69-9.39-4.17-9.56-3.83-9.91-3.3-10.08-2.78-10.25L46,306.09l-1.91-10.78-1.39-10.95L42,273.58l-.35-11.29V252.9c.18,0,.87-9.21.87-9.21l.87-9.21,1.39-8.87,1.74-9,2.09-8.51,2.43-8.69,2.78-8.52L57,182.33l3.48-8,3.65-8,4-7.65L72.45,151l4.69-7.47L82,136.44l5.21-6.95,5.56-6.78,5.74-6.43,5.91-6.26,6.26-6.08,6.43-5.73,6.6-5.57,7-5.21,7.12-4.87,7.3-4.69,7.48-4.35,7.82-4.17,7.82-3.82,8.17-3.48,8.17-2.95,7.3-2.44V53.53c.17,0,.52-1.56.52-1.56v-.35l.52-1.39.35-1,.52-1.74.35-.69.52-1,.7-1.56V43.8l.69-.87.87-1.56V41c.17,0,1.22-1.22,1.22-1.22l.87-1.21.86-1.05.87-1.21.35-.35.87-.87,1.22-1.22.34-.34,1.05-.87,1-.87,1.22-.87,1.39-1,.52-.35.69-.35,1.39-.87h.35l1.39-.69h.35l1.22-.53,1.74-.52,1.21-.34,1.91-.53h3.31c0-.17,1.73-.34,1.73-.34h2.44a13.48,13.48,0,0,1,.69-1.57l.52-.87.87-1.39.35-.52.35-.35.87-1.39.35-.34,1.21-1.4.87-.69.87-.87,1.22-1,.35-.35.69-.52,1.22-.87h.34c0-.17,1.22-.87,1.22-.87l.7-.35,1.56-.87h.52c0-.17.87-.69.87-.69l1.39-.7H244l1.05-.52,1.39-.52L248,8.34,249.39,8h.52L251,7.82h1.39c0-.17.34-.17.34-.17h6.44l1,.17h1.56c0,.17.52.35.52.35l1.39.35,1.57.52,1.39.52,1.22.52,1.39.52h.34c0,.18,1.05.7,1.05.7l1.21.69,1.22.7h.35c0,.17,1.21,1,1.21,1l1.4.87,1,.87,1,.87,1.22,1,.35.35.86,1,.53.7,1,1v.35a8.93,8.93,0,0,1,1.22,1.39l.69,1,.87,1.22v.34c.17,0,.52.53.52.53h0c0,.17.87.17.87.17h3l1.39.35h1.73c0,.17.53.35.53.35l1.39.34,1.56.52,1.39.53,1.39.52h.35l1.22.69,1.56.87,1.39.87,1.56,1,1,.87,1.39,1,1,1,1,.87,1.22,1.21,1,1.22.35.35.87,1.22.87,1.39.87,1.39.69,1.21.7,1.39v.35l.69,1.22.7,1.74.52,1.39.52,1.73v.53l.35,1,.35,1.39v.35l.35,1.56v1l7.82,2.61,8.17,3.13,8.17,3.48,7.64,3.82,7.65,4,7.82,4.52,7.13,4.69,7.13,5,6.95,5.22,6.6,5.56,6.26,5.73,6.26,6.09,5.91,6.25,5.73,6.61,5.39,6.6,5.22,7.13,4.86,7.13,4.7,7.3,4.34,7.64,4,7.65,3.82,8.17,3.31,8.17,3.12,8.34,2.61,8.52,2.43,8.69,2.09,8.87L466,227l1.4,8.87,1,9.21.52,8.86-8.86.52h8.86c0-.17.17,9.22.17,9.22l-.34,11.12-.87,10.95-1.39,10.95-1.92,10.6-2.43,10.43L459.36,328l-3.48,10.08L452.06,348l-4.35,9.56L443,366.92l-5.21,8.87-5.57,8.86L426.33,393l-6.43,8.17L413.12,409,406,416.46l-7.48,7.12-7.82,6.78-8,6.26-8.35,6.08-8.69,5.57-8.86,5.21-9.39,4.87L338,462.69l-9.74,3.83-9.9,3.3-10.09,2.78L297.89,475,287.28,477l-10.77,1.39-10.78.87h-11c0,.17-10.95,0-10.95,0h0Z" transform="translate(-41.68 -7.65)"/><path class="cls-2" d="M323.44,123.58v7.13a149.18,149.18,0,0,1,79.26,132.1c0,82.39-66.23,149.13-147.57,149.13v-2.61c79.95,0,145-65.52,145-146.52s-32.16-106.2-79.26-130.54v-9.9l-5.91-2.61L308,117l-7.13-2.44-7.3-2.08-7.47-1.74-7.65-1.39-7.65-1-7.82-.7h-7.82V16h2.26l1,.35h1l1,.35,1.21.34,1,.35,1,.35,1,.35,1,.52,1.05.52.87.52,1,.7.87.69.87.7.87.69.87.7L273,24l.7.87.69.86.7.87.69.87.52.87.52,1,.7,1.05.35,1,.34,1,.35,1v1.21c.18,0,.35.35.35.35h.35l.52-.17h.52l.52-.18h2.26l.52-.17h2.44l1.21.17h1.22l1.22.35,1.21.35,1.22.35,1.22.34,1.21.35,1.05.52,1.21.52,1.05.53,1,.69,1,.7.87.69.87.87.87.87.87.87.87.87.69,1,.7,1,.52,1,.52,1,.52,1,.52,1,.52,1.22.35,1.22.35,1.22v1.21c.17,0,.52,1.22.52,1.22v1.22c.18,0,.18,1.39.18,1.39v4.86l-.18.35,5.91,1.74,8,2.61,8,3,7.82,3.3L346.73,78l7.3,3.83,7.3,4.17,6.95,4.52,7,4.86,6.61,5,6.43,5.38,6.08,5.57,6.09,5.73,5.73,6.08,5.56,6.26,5.22,6.43,5,6.78,4.69,7,4.52,7.13,4.17,7.3,3.83,7.48,3.65,7.64L446,187l2.95,7.83,2.61,8.17,2.43,8.17,1.91,8.34,1.57,8.52,1.39,8.69.87,8.69.52,8.86v19.82l-.87,10.42L458.14,295l-1.91,10.26L454,315.3,451.19,325l-3.3,9.74-3.65,9.38-4.17,9.22-4.52,9-5,8.69-5.22,8.35-5.73,8.17-6.09,7.82L407,402.9,400.26,410l-7.12,6.78-7.48,6.6L378,429.5l-8,5.73-8.34,5.39-8.52,5-8.87,4.52-9,4.17L325.87,458l-9.56,3.3-9.73,2.79-9.91,2.43-10.08,1.74-10.26,1.39-10.25.87h-10.6V419.07h7.82l7.82-.7,7.65-1,7.64-1.39,7.48-1.74,7.3-2.09,7.12-2.43,7-2.78,6.78-3.13,6.6-3.47,6.43-3.83,6.26-4,6.08-4.34,5.91-4.52,5.56-4.87,5.39-5.21,5-5.39,4.87-5.56,4.52-5.91,4.35-6.09,4-6.25,3.83-6.61,3.47-6.6,3.13-6.78,2.78-7.13,2.44-7.3,2.08-7.3,1.74-7.47,1.39-7.65,1-7.82.52-8v-16l-.52-7.82-1-7.82-1.39-7.65-1.74-7.47-2.08-7.48-2.44-7.12-2.78-7.13-3.13-6.95-3.47-6.78-3.83-6.61-4-6.25-4.35-6.09-4.52-5.91L369.32,159l-5-5.39-5.39-5.21-5.56-4.87-5.91-4.69-6.08-4.35-6.26-4-6.43-3.83-4.87-2.61ZM255.13,411.94c-81.35,0-147.4-66.74-147.4-149.13S140.24,154.87,188,130.19v-7.13L182,126.19,175.52,130l-6.26,4-6.08,4.35-5.74,4.69-5.56,4.87-5.39,5.21-5,5.39-4.69,5.56L132.07,170l-4.17,6.08-4,6.26-3.65,6.61-3.48,6.78-3.13,6.95-2.78,7.12-2.43,7.13-2.09,7.47-1.74,7.48-1.39,7.65-1,7.82-.69,7.82v8c-.18,0,0,8,0,8l.69,8,1,7.82,1.39,7.65,1.74,7.47,2.09,7.3,2.43,7.3,2.78,7.13,3.13,6.78,3.48,6.6,3.65,6.61,4,6.25,4.17,6.09,4.69,5.91,4.69,5.56,5,5.39,5.39,5.21,5.56,4.87,5.74,4.52,6.08,4.34,6.26,4,6.43,3.82,6.61,3.48,6.78,3.13,6.95,2.78,7.12,2.43,7.3,2.09,7.48,1.74,7.47,1.39,7.82,1,7.83.52h8v52H244.7c0-.17-10.43-1-10.43-1L224,467.91l-10.08-1.74-9.9-2.43L194.29,461l-9.56-3.31L175.52,454l-9-4.17-8.86-4.52-8.52-5-8.34-5.39-8-5.73-7.82-6.09-7.47-6.6-7.13-6.78-6.78-7.13-6.43-7.47-6.08-7.82-5.74-8.17-5.39-8.34-4.86-8.69-4.52-9-4-9.21-3.65-9.39-3.3-9.73L56.81,315l-2.26-10.08-1.92-10.25-1.21-10.43-.7-10.43L50.37,263v-9c.18,0,.87-8.86.87-8.86l.87-8.69,1.39-8.69,1.57-8.52,2.08-8.34,2.26-8.17L62,194.5l2.95-8,3.31-7.82L71.75,171l3.83-7.47,4.17-7.3,4.34-7.13L89,142.35l4.87-6.77L99,129.14l5.39-6.25L110,116.8l6.09-5.73,6.25-5.56,6.43-5.39,6.61-5,6.78-4.7,7.12-4.52,7.13-4.17,7.47-4L171.35,74l7.82-3.3,8-2.95,8-2.61,5.74-1.74v-6.6l.17-1.22V54.4c.17,0,.52-1.21.52-1.21l.35-1.22.35-1.22.52-1.21.52-1.22.52-1,.52-1.05.7-1,.69-1,.7-.87.69-.87.7-.87.87-.87.87-.69.87-.7,1-.69,1-.7,1.05-.52,1-.52,1-.52,1.22-.35,1.21-.35,1.22-.35,1.22-.34h1.22l1.21-.35h6.78l.52.35h.52l.52.17h.35v-.17l.35-1,.35-1,.35-1,.52-1,.52-1.05.52-1,.52-.87.52-.87.7-.87.69-.87.7-.87.69-.69.87-.7.87-.69.87-.7.87-.69.87-.52,1-.53.87-.69.87-.35,1-.52,1.05-.35,1-.35,1.22-.34h1c0-.18,1.21-.35,1.21-.35h1.05l1.21-.35h1.22v91.6h-8l-7.83.87-7.82,1-7.47,1.39-7.48,1.74-7.3,2.09-7.12,2.43-6.95,2.78-4.87,2.26v9.91a146.56,146.56,0,0,0-80.13,131.06c0,81,64.83,146.52,145,146.52v2.61Z" transform="translate(-41.68 -7.65)"/><path class="cls-3" d="M255.13,18.42A22,22,0,0,1,277,38.07a20.59,20.59,0,0,1,8.17-1.57,22.34,22.34,0,0,1,22.25,22.42c0,12.52-.35,4-.87,5.91C393.31,88,457.45,167.73,457.45,262.63S366.89,467.21,255,467.21v-46.4c86.39,0,156.44-70.75,156.44-158.18s-70.05-158-156.44-158V18.42Zm0,449c-111.77,0-202.32-91.6-202.32-204.58S116.94,88,203.68,65a26,26,0,0,1-.87-6.26,22.29,22.29,0,0,1,22.07-22.42c12.17,0,5.74.52,8.17,1.56A22.16,22.16,0,0,1,255,18.42v86.22c-86.38,0-156.43,70.91-156.43,158S168.57,420.81,255,420.81v46.4Z" transform="translate(-41.68 -7.65)"/><path class="cls-4" d="M255.13,18.42A22,22,0,0,1,277,38.07a20.59,20.59,0,0,1,8.17-1.57,22.34,22.34,0,0,1,22.25,22.42c0,12.52-.35,4-.87,5.91C393.31,88,457.45,167.73,457.45,262.63S366.89,467.21,255,467.21,52.63,375.61,52.63,262.63,116.77,87.78,203.5,64.83a25.85,25.85,0,0,1-.86-6.25,22.29,22.29,0,0,1,22.07-22.43c12.17,0,5.74.52,8.17,1.57a22.15,22.15,0,0,1,21.9-19.47h0Zm0,86.39c86.38,0,156.43,70.92,156.43,158S341.51,421,255.13,421,98.69,350.24,98.69,262.81,168.74,104.81,255.13,104.81Z" transform="translate(-41.68 -7.65)"/><path class="cls-2" d="M344.29,360v-1.91a34.75,34.75,0,0,0,14.95-4.69c.35-21.38,1.39-42.42,3.3-63.1,1.74-20.34,4.35-40.67,7.65-60.49a69.45,69.45,0,0,1-20.86,4.7h-5V185.29l11.65-2.78h.52c0-.18.35.34.35.34h0l3.13,4.17c.87,1.4,1.91,3,2.78,4.35h0a127.21,127.21,0,0,1,12.51,24.16v.52l-.17.35L364.28,226l.35.87c0,.52.35,1,.35,1.56h0c0,.35.35.7.35,1.05a53.75,53.75,0,0,0,5.56-2.09l1.56-.52-.35,1.56c-.69,4-1.39,8-1.91,12l11.65,3.12h.69v.7h0a13.75,13.75,0,0,0,.35,2.61,14.44,14.44,0,0,0,.18,2.6,113.57,113.57,0,0,1,.69,13.39h0c0,3.3-.17,6.43-.35,9.38v1.57a56.88,56.88,0,0,1-.87,7.65v.52l-.69.17-14.08,3.65a2.6,2.6,0,0,1-.35,1.57,9.32,9.32,0,0,1-.52,2.08,101.72,101.72,0,0,1-2.95,10.26l10.42,10.6.35.35v.52h-.17c-.7,1.91-1.57,3.65-2.26,5.56-.87,1.74-1.74,3.65-2.61,5.39a114.5,114.5,0,0,1-8.34,14.08c0,5.91-.35,11.82-.35,17.55v.52h-.52a35.39,35.39,0,0,1-16.34,5.39h0Zm0-3.65a20.83,20.83,0,0,0,10.43-4l11.13-120.1L361.68,235l-9.91,116.63a26.18,26.18,0,0,1-7.65,1.91v2.95h0Zm0-8.52h1.22c1.74-12.16,3.48-24.16,3.65-36-2.08,9.56-3.65,19.47-4.87,29.38Zm0-162.69V234.3a42,42,0,0,1-16.68-4.17h0a68.69,68.69,0,0,0-16.86-10.43v-1.91a75.08,75.08,0,0,1,17.9,10.78,35,35,0,0,0,7.13,2.6,86,86,0,0,0-19.3-29.89,52.31,52.31,0,0,0-5.56-5.22V143.4a42.45,42.45,0,0,1,4.69.87h.87l-.17,1-.35,2.26a121,121,0,0,1,19.47,12.86l.52.35v.52l-4,14.43c.52.34.7.69,1.22,1,.52.52,1,.87,1.56,1.39,2.44,2.43,5,5,7.3,7.65l3-.7h-.7Zm0,156.26V348a136.6,136.6,0,0,1-33.89-7v-2.26c11.3,5.22,22.42,6.26,33.37,6.61a37,37,0,0,1,.52-4Zm0,12v2.95c-6.43.7-13.55-1-21.72-5.74,8.17,2.61,15.29,3.48,21.72,2.79Zm0,4.69c-12,1-23.11-4.17-33.89-9.56v32.15a98.73,98.73,0,0,0,15.64-9c1.39-1.05,3-1.92,4.35-3,1.56-1,2.78-2.09,4.17-3.13h0l.35-.35v-.52l-1.39-5a42.93,42.93,0,0,0,10.6.52v-1.91ZM310.4,143.57v52.67a85,85,0,0,0-16.16-10.78l-4,5.74h.17l.7.17v8.69h-1.05a13.69,13.69,0,0,0-2.6-.69l-2.09,14.07a51.82,51.82,0,0,1,19.12,2.44A33.63,33.63,0,0,1,310.4,218v1.92c-2.09-.87-4.17-1.57-6.43-2.26a53.31,53.31,0,0,0-18.77-2.26l-5,35.11v-125c7.47.87,14.94,1.92,22.42,3.48h.69v13.38c2.44.53,4.87.87,7.3,1.39h0Zm0,195.19V341a70.3,70.3,0,0,1-10.6-4.34,55.6,55.6,0,0,0-19.64-5V329.2a106.36,106.36,0,0,1,29.72,9.22,2.41,2.41,0,0,1,.52.34Zm0,9.56a10.32,10.32,0,0,1-2.43-1.39c-9.22-4.69-18.43-9.38-27.81-10.6v1.91A49.87,49.87,0,0,1,292,341.37a88.66,88.66,0,0,1-11.82,4.69v30.07c2.43-.52,4.86-1.21,7.3-1.91a8.81,8.81,0,0,0,2.08-.52,5.68,5.68,0,0,0,1.57-.52l10.43,10.6.52.35h.52c2.78-1.22,5.39-2.43,8-3.82V348.15Zm-30.24-223v125l-11.3,77.87a84.92,84.92,0,0,1,11.3.87v2.43c-4-.34-7.65-.52-11.65-.69v1.56c1.91-.17,4.17-.34,6.26-.52h1v4.52a35.17,35.17,0,0,1,4.35.18v1.91a35.42,35.42,0,0,0-4.35-.35v5.39h-.87c-2.78.35-5.73.52-8.51.69l-.7,5a96,96,0,0,0,14.43-2.95v30.07c-1.05,0-1.92.52-3,.52l-3.65,14.25v.7h-.69c-.87,0-1.74.35-2.44.35a11.69,11.69,0,0,0-2.43.17c-4.17.35-8.52.69-12.69.69h0a93.05,93.05,0,0,1-9.73-.34c-.52,0-1-.18-1.57-.18-2.6-.17-5.21-.52-7.82-.87v-44a86.37,86.37,0,0,0,13.39,1.91l-1-5.56a54.49,54.49,0,0,1-7.65-.52H240v-3.13a14.21,14.21,0,0,0-3.83.35v-1.92a29.13,29.13,0,0,1,3.83-.34V333.2c-1.22.35-2.61.7-3.83,1.05V332c3.13-.87,6.09-1.57,9-2.09l-9-45.71V124.1a248.61,248.61,0,0,1,44,.87ZM172.39,355.8c7.13,1,14.43.52,21.73,0-6.43,2.43-13.39,4-21.73,2.61V355.8Zm63.79-231.35V284.53l-13-66c-6.78.53-12.69,1.4-17.73,3.13-6.26,1.92-10.95,5-14.08,9.22h0c-5.91,4.86-12,8.69-18.77,10.95v-1.92a61.12,61.12,0,0,0,17.55-10.42c3.48-4.52,8.52-7.65,14.95-9.74a83,83,0,0,1,17.9-3.13l-3.3-17.38a6.31,6.31,0,0,0-1.91.35h-1V191h.7l.69-.35L214.63,186a85.39,85.39,0,0,0-19.82,15.12,88,88,0,0,0-22.07,37.72V182a80,80,0,0,1,6.78-6.43l-3.65-14.42v-.53l.35-.34h0c2.95-2.44,6.25-4.7,9.56-7a47.54,47.54,0,0,1,6.43-3.82l-.87-4.17v-.87H192c4-.87,7.65-1.74,11.65-2.26V129h.69a227.43,227.43,0,0,1,32.51-4.34h0Zm0,207.88v2.26a105.43,105.43,0,0,0-17.55,7.82c-.53-1-1-1.91-1.57-2.78a155,155,0,0,1,19.12-7.3Zm0,6.61c-5.21,1.22-10.6,4.87-16.51,8.86-11.3,7.65-25.55,17.38-47.28,16.34v1.74h4.35A125.13,125.13,0,0,0,195,377.7a56.51,56.51,0,0,0,5.56,2.78c1.91.87,4,1.74,5.91,2.61H207c0,.17.35,0,.35,0l10.08-10.61a67,67,0,0,0,10.08,3c.7.17,1.39.35,2.26.52a4.88,4.88,0,0,1,1.56.35l4,14.43v.52h.7v-43.8a78.43,78.43,0,0,1-9-2.61,32,32,0,0,1,9-4.17v-1.92h0Zm-63.79-4.69V314.6c2.26,11.3,4.17,22.77,5.56,34.42,12.52,2.43,25,0,37.55-4.69-11.47,6.95-24.34,10.77-40.33,8-.87-5.91-1.74-11.82-2.78-17.9ZM146.49,263a10.08,10.08,0,0,1,2.26-1.39c9.56,29,16.86,60.49,22.6,94a1.27,1.27,0,0,1,1,.35v2.61c-1.56-.17-3.13-.7-4.87-1-3.82-31.81-9.9-63.27-21-94.38h0Zm25.9-80.65-.35.35c-.52.52-.86,1-1.39,1.56l-1,1L155,181.81h-.52l-.35.35a133.44,133.44,0,0,0-14.08,22.25,39.1,39.1,0,0,0-2.26,4.69l-2.08,4.69h0v.52c-.18,0,.34.35.34.35l10.26,10.6c-1,3.31-2.09,6.61-3,9.91a8.88,8.88,0,0,1-.52,2.09,2.62,2.62,0,0,1-.34,1.56L128.42,242h-.7v.7c-.35,2.78-.69,5.38-.87,8.16v1.74c-.17,3.31-.35,6.61-.35,10.08h0a100.94,100.94,0,0,0,.7,12.52,11.69,11.69,0,0,0,.17,2.43,10.32,10.32,0,0,0,.35,2.26h0v.7h.7c0,.17,14.08,4,14.08,4,.69,3.48,1.56,7,2.43,10.26,0,.52.52,1.39.52,2.09a5.62,5.62,0,0,0,.52,1.56l-10.43,10.78-.52.34.35.53a129.86,129.86,0,0,0,12.34,24c1,1.57,1.91,3,2.95,4.35l3.13,4.17h0l.35.52h.52l4.52-1.39c1,7.3,1.91,14.77,2.61,22.25v.69h.69a68.15,68.15,0,0,0,10.09,1.22v-1.74a55.59,55.59,0,0,1-9-1,372.56,372.56,0,0,0-9-55.1,474.34,474.34,0,0,0-14.78-48.32h7.65V259l2.26-15.81a45.87,45.87,0,0,0,22.42-1,.67.67,0,0,0,.53-.17V240h-.35a6,6,0,0,1,.35-1V182.16h0Zm0,132.27a371.57,371.57,0,0,0-21.73-69.35,22.55,22.55,0,0,0,.18,3.48,594.12,594.12,0,0,1,21.55,85.69V314.6Z" transform="translate(-41.68 -7.65)"/><path class="cls-5" d="M262.6,332.51h4l19.12-133.32c-.87-.17-1.74-.17-2.78-.35L262.78,332.68Z" transform="translate(-41.68 -7.65)"/><path class="cls-5" d="M253,332.68h7l13.56-135c-1.21,0-2.61-.35-4-.35L256.87,320.86l5.91-123.93a35.71,35.71,0,0,1-4.35-.17L255.65,317l-5.74-120.28c-1.91,0-3.82,0-5.73.17l10.08,121.85L237.57,197.45a26.66,26.66,0,0,0-3.65.35l19.3,134.88Z" transform="translate(-41.68 -7.65)"/><path class="cls-5" d="M221.06,199.54l26.42,132.79h3.3L224.19,198.84a20.69,20.69,0,0,0-3,.53Z" transform="translate(-41.68 -7.65)"/><path class="cls-5" d="M241.92,341.72c5.39.52,10.77.87,16.34.87a156.11,156.11,0,0,0,15.81-.7v-8.34c-5.39.52-10.77.87-16.16.87s-10.78-.35-16-.87Z" transform="translate(-41.68 -7.65)"/><path class="cls-5" d="M209.41,133a.82.82,0,0,1,.87-.87,1,1,0,0,1,1.05.87v7.82a34.93,34.93,0,0,1,4.17-.52v-6.78a.87.87,0,0,1,1.74,0v6.6a33,33,0,0,0,4.17-.52v-6.08a.87.87,0,0,1,1.74,0v5.91a30.11,30.11,0,0,0,3.82-.35v-6.26a.87.87,0,0,1,1.74,0v6.09a15.52,15.52,0,0,0,4-.35v-6.26a.82.82,0,0,1,.86-.87.93.93,0,0,1,.87.87v6.09c6.43-.35,12.69-.52,19.12-.52a281.24,281.24,0,0,1,29.55,1.56v-7a.82.82,0,0,1,.87-.87.93.93,0,0,1,.87.87v7.12c1.39.18,2.61.35,4,.52v-6.77a1,1,0,0,1,.87-1c.52,0,.87.35.87,1v6.77a25.69,25.69,0,0,1,3.65.53v-7a.82.82,0,0,1,.86-.87.93.93,0,0,1,.87.87v7.13a52.61,52.61,0,0,1,5.22.87V130a259.25,259.25,0,0,0-96.82,0v11.48c1.57-.18,3.13-.53,4.7-.7v-8.17Z" transform="translate(-41.68 -7.65)"/><path class="cls-5" d="M292.15,185.29l19-26.94c-5-1.22-10.09-2.09-15.3-3l-3.65-.52v5.21H293a1.16,1.16,0,0,1,.35,1.22L292.32,163v9l6.09-9.91c.17-.52.87-.52,1.21-.35.53.18.53.87.35,1.22l-7.65,12.51v9.56Zm-6.6,4.69a18.51,18.51,0,0,1,2.95.69l3.65-5.38v-9.56l-6.08,9.9c0,.18-.35.35-.52.35v4Zm6.6-35.11c-2.09-.35-4.35-.7-6.6-.87v5.56h.69a.84.84,0,0,1,.17,1.22l-1,1.56v8.17l6.26-10.25a.37.37,0,0,1,.35-.35V154.7h0Zm0,8.34v9L285.55,183v-9l6.6-11Zm-13.21,25.55c2.26.35,4.52.7,6.61,1.22v-4h-.7a1.15,1.15,0,0,1-.35-1.21l1-1.57v-9l-5.9,9.74c0,.17-.35.34-.7.34v4.52ZM285.55,154c-2.09-.17-4-.52-6.09-.7h-.52V170l6.08-9.91c0-.17.35-.34.53-.34v-5.57h0Zm0,8.52v8.17l-6.61,10.95v-8l6.61-10.95Zm-11.48,25.55a22.42,22.42,0,0,1,4.7.69v-4.52h-.53a1.06,1.06,0,0,1-.17-1.39l.87-1.39v-8l-4.69,7.82v6.78h-.18Zm4.87-34.77V170l-4.69,7.82V165.12l2.95-4.69a1.07,1.07,0,0,0-.35-1.22,1,1,0,0,0-1.21.35l-1.39,2.26v-8.69a41.11,41.11,0,0,1,4.69.35Zm-9.39,34.07,4.7.52v-6.78l-1.39,2.26c-.18.53-.87.53-1.22.35a1.15,1.15,0,0,1-.35-1.21l3-4.7V165.12l-4.7,7.83v14.77h0Zm4.52-34.59v8.69l-4.69,7.83V152.61a21.19,21.19,0,0,1,4.69.35ZM236.7,187.55h.87a140.17,140.17,0,0,1,32,0V172.77l-6.08,9.91a1.36,1.36,0,0,1-1.39.35,1,1,0,0,1-.17-1.39l7.64-12.34V152.61a257.19,257.19,0,0,0-32.85,0v14.6L244,179.9c.35.35,0,1-.34,1.22a1.16,1.16,0,0,1-1.22-.35l-5.91-10.08v16.68Zm-4.34.52a33.71,33.71,0,0,0,4.34-.52V170.86l-4.34-7.65v12.17l2.95,5.39c.35.34,0,1-.35,1.21a1,1,0,0,1-1.21-.34L232.18,179v9h.18Zm4.34-35.46v14.6l-4.34-7.65v-6.78C233.92,152.78,235.31,152.61,236.7,152.61Zm-8.51,36.15a40.16,40.16,0,0,0,4.17-.69v-9l-4.17-7.47v8.86l.69,1.39a1.34,1.34,0,0,1-.35,1.39h-.34v5.56Zm4.17-36v6.78L230.79,157a1,1,0,0,0-1.21-.34,1.07,1.07,0,0,0-.35,1.21l3.13,5.22v12.17l-4.17-7.48V153a37.8,37.8,0,0,0,4.17-.35ZM221.58,190c1.91-.35,3.65-.87,5.56-1.22H228V183.2c-.35,0-.69,0-.87-.52L221.41,173v9.56l.69,1.21a1.08,1.08,0,0,1-.34,1.22h-.35v4.87h0Zm6.61-36.68c-2.26.18-4.35.35-6.43.7v3.48c.34,0,.69,0,.86.34l5.74,10.09V153.13h0Zm0,18.43v8.86l-6.43-11.29v-9l6.43,11.47Zm-8.52,18.77a10.1,10.1,0,0,0,2.09-.35v-4.86c-.35,0-.7,0-.87-.35l-5.57-10.08v9.73l4.52,5.91h-.17Zm1.91-36.5c-2.26.17-4.34.52-6.43.87v3.82c.17,0,.52,0,.52.52l5.91,10.09v-9l-.87-1.39a1,1,0,0,1,.35-1.22h.35v-3.48h0Zm0,18.95v9.56l-6.43-11.65v-9.39l6.43,11.3Zm-6.43-18.08c-6.6,1-13,2.08-19.47,3.48l19.47,26.07v-9.74l-7.3-12.86c-.35-.35,0-1,.35-1.22a1.36,1.36,0,0,1,1.39.35L215.15,171v-9.38l-1-1.57a1.07,1.07,0,0,1,.34-1.21h.7v-4Z" transform="translate(-41.68 -7.65)"/><path class="cls-5" d="M253.56,139.75a305.28,305.28,0,0,0-61,6.08L195,156.61a267.21,267.21,0,0,1,84.47-5.22c5.56.52,11,1.22,16.34,2.09,5.21.87,10.26,1.91,15.47,3l2.26-10.77a319.28,319.28,0,0,0-60.31-6.09Z" transform="translate(-41.68 -7.65)"/><path class="cls-5" d="M227.49,190.67a96.16,96.16,0,0,0-9.56,2.09v5a183.71,183.71,0,0,1,51.62-2.61c3.48.35,7,.7,10.43,1.22l9.39,1.57v-5a152.43,152.43,0,0,0-51.62-3.47c-3.48.35-6.78.87-10.26,1.39Z" transform="translate(-41.68 -7.65)"/><path class="cls-5" d="M295.28,183.9a95.91,95.91,0,0,1,22.07,16.16,91.29,91.29,0,0,1,20.17,31.63h1.91c0,.18.69.35.69.35H354.9l.69-.17h.7l.69-.17h.7l.52-.18h.7l.69-.35h.7l.69-.34h.7l.52-.35h.69l.7-.35h.52c0-.17.52-.35.52-.35a2.42,2.42,0,0,0-.35-1h0a3.25,3.25,0,0,0-.52-1.39,3.9,3.9,0,0,0-.52-1.56h0v-.53l.35-.34,10.6-9.56a132.32,132.32,0,0,0-12-23.12h0c-1-1.57-1.91-3-3-4.35-.87-1.21-1.91-2.43-2.78-3.65L342,187.72h-.53l-.34-.17c-2.44-2.78-4.87-5.39-7.48-8a6.11,6.11,0,0,0-1.56-1.39,12.12,12.12,0,0,0-1.57-1.56h0l-.52-.35v-.52l4-14.43a127,127,0,0,0-18.25-12l-1.91,9.38-17.56,25h0ZM259,391.08v-7.47h0a8.28,8.28,0,0,0,8.17-8.17c0-4.35-1.22-5-3.13-6.61l1.91-17.9a86.23,86.23,0,0,0,28.34-8.52h.34l.87.53,1.05.34,1,.53,1,.34,1,.52,1.05.53,1,.52,1,.52.87.52,1,.52,1,.52,1.91,1.05,1.56.86,1.57.7,1.56.87,1.57.69,1.56.7,1.57.7,1.56.69,1.56.7,1.57.69,1.56.7,1.57.52,1.56.52,1.74.52,1.56.52,1.57.35,1.22.35,1.39,5.39c-1.22,1-2.44,1.91-3.65,2.78-1.39.87-2.79,1.91-4.18,2.95a120,120,0,0,1-22.94,12.17l-10.43-10.6-.35-.35h-.52c-.69.35-1.39.52-2.08.87-.7.17-1.39.52-2.09.69-3.48,1.05-7.13,1.91-10.6,2.61h-.52v.69l-3.65,14.26a8.05,8.05,0,0,0-1.92.17,10.36,10.36,0,0,0-2.43.18c-2.95.17-5.73.52-8.69.52h0Zm0-9.21A6.43,6.43,0,0,0,259,369v12.86Zm0-14.6h0a6.93,6.93,0,0,1,3.3.7l2.44-23.64H259v22.94Zm102.73-34.59c2.26-3.65,4.51-7.47,6.6-11.3.87-1.73,1.74-3.47,2.61-5.38.69-1.57,1.39-3.31,2.08-4.87l-9.38-9.39V304l-.35,1.91v1.92l-.17,1.91v1.91l-.35,1.91v1.91l-.18,1.92v5.73l-.17,2.09v7h0Zm2.43-38.59c.35-1.56.87-3.3,1.22-5a8.81,8.81,0,0,1,.52-2.08,9.4,9.4,0,0,1,.52-2.09h0v-.52l.69-.17,14.08-3.65c.18-2.26.52-4.52.7-7V272c.17-3.13.35-6.26.35-9.21h0a111.54,111.54,0,0,0-.7-13.39,7.6,7.6,0,0,0-.35-2.6,6.73,6.73,0,0,0-.17-1.92l-11-3v.87l-.52,1.91-.35,1.91v1.91a8.07,8.07,0,0,0-.52,1.92v1.91c-.18,0-.52,1.91-.52,1.91l-.35,1.91-.35,1.91V260c-.17,0-.35,1.91-.35,1.91v1.91a8,8,0,0,0-.52,1.91l-.34,1.91v1.92c-.18,0-.35,1.91-.35,1.91v1.91c-.18,0-.35,1.91-.35,1.91v1.91c-.17,0-.35,1.92-.35,1.92v1.91L364.8,283v1.91c-.17,0-.34,1.91-.34,1.91v1.92l-.35,1.91v1.91l-.17,1.74ZM259,344.33v22.94a6.94,6.94,0,0,0-4.17,1.22l-4.35-24.34H259ZM259,369v12.86h0A6.43,6.43,0,0,1,259,369Zm0,14.77a8.27,8.27,0,0,1-8.17-8.17c0-4.34.87-4.34,2.26-5.73l-3.3-18.25a83.1,83.1,0,0,1-24.68-5.22l-.35.35-.7.35-.69.35-.52.52-.87.52-.7.52-.69.35-1.39.87-1.22.87-1.22.86-1.39.87-1.39.87-1.39.87-1.39.87-1.39.87-1.56.87-1.39.87-1.57.69-1.56.87-1.57.7-1.56.69-1.74.7-1.74.69-1.73.53-1.74.69-1.91.52-1.92.52-1.91.35-2.08.35-2.09.35H181.6a8.86,8.86,0,0,1-2.08.34h0a132.63,132.63,0,0,0,16.16,10.26c1.91,1,3.65,1.91,5.57,2.95,1.73.87,3.47,1.57,5.21,2.26l10.08-10.6.35-.35h.52a73.34,73.34,0,0,0,10.43,3.48,8.82,8.82,0,0,1,2.26.52,8.88,8.88,0,0,0,2.08.35h.53v.69l4,14.43c2.44.35,4.87.7,7.13.87h1.56a85.23,85.23,0,0,0,9.56.52h3.83V384h0Zm-89-143a87.25,87.25,0,0,1,23.12-40.67,85.85,85.85,0,0,1,20-15.29l-19.29-25.9L192,151.39c-1.91,1.22-4,2.44-5.73,3.65-3.13,2.09-6.09,4.17-9,6.43l3.65,14.43v.52l-.35.35c-2.43,2.26-5,4.69-7.3,7.13a5.4,5.4,0,0,1-1.39,1.39l-1.39,1.39h0l-.35.34h-.52L155,183.37a142.55,142.55,0,0,0-13.38,21.38c-.87,1.57-1.57,3-2.26,4.52-.52,1.39-1.22,2.78-1.74,4.17l10.25,10.61.35.34v.53a70.36,70.36,0,0,0-3.3,10.25,7.53,7.53,0,0,1-.52,2.09c0,.69-.35,1.39-.35,2.08h0v.52l-.7.18-14.07,3.13c-.35,2.43-.53,5-.87,7.47a5.73,5.73,0,0,1-.18,1.56c-.17,3.31-.34,6.61-.34,9.91h0a98,98,0,0,0,.52,12.34,13.94,13.94,0,0,0,.34,2.44,5.67,5.67,0,0,0,.18,1.73L143,282.45h.52v.69A104.24,104.24,0,0,0,146,293.75a6.36,6.36,0,0,0,.7,1.91,9.4,9.4,0,0,0,.69,2.08h0v.53l-.17.34-10.43,10.78a133.92,133.92,0,0,0,12,23.29c.87,1.39,1.91,2.78,3,4.17l2.6,3.65,4.18-1.21v-1.57c-.18,0-.52-1.74-.52-1.74v-1.73c-.18,0-.53-1.74-.53-1.74l-.34-1.74V329.2c-.18,0-.53-1.73-.53-1.73l-.34-1.74-.35-1.57-.35-1.56-.35-1.74-.34-1.56-.35-1.57-.35-1.56-.35-1.57-.34-1.56-.35-1.56-.35-1.57-.35-1.56-.34-1.57-.35-1.56-.35-1.57-.35-1.56-.35-1.57-.34-1.56L150,297.4l-.35-1.57-.35-1.56-.52-1.57-.35-1.56-.52-1.39-.34-1.57-.53-1.39-.34-1.56-.52-1.39-.53-1.57-.52-1.56-.35-1.39-.52-1.57-.52-1.39-.52-1.56-.52-1.39-.52-1.57-.52-1.39-.53-1.39-.52-1.56-.52-1.56-.52-1.4-.35-1.39-.52-1.39-1.39-4h8.52l2.43-16.86,2.61.52h.69l.7.17h.69l.7.17H155l.7.18h6.95l.69-.18h.7l.69-.17h2.09l.69-.17h.7c0-.18.7-.35.7-.35h.52l.69-.35H170Z" transform="translate(-41.68 -7.65)"/><polygon class="cls-6" points="143.57 252.55 142.18 237.26 145.13 237.08 146.53 252.21 143.57 252.55"/><polygon class="cls-6" points="149.48 252.03 148.09 236.74 151.04 236.56 158.17 245.95 157.13 235.87 159.91 235.52 161.47 250.81 158.52 251.16 151.39 241.78 152.44 251.68 149.48 252.03"/><polygon class="cls-6" points="137.66 299.14 136.27 284.01 139.23 283.67 139.75 289.58 145.83 289.05 145.13 282.97 148.26 282.8 149.65 297.92 146.7 298.27 146 291.66 140.09 292.18 140.79 298.79 137.66 299.14"/><path class="cls-6" d="M200.38,289.23a7,7,0,0,1,4.69,1.56c1.56,1.22,2.26,3.13,2.43,5.56a7.4,7.4,0,0,1-1.39,5.91,6.82,6.82,0,0,1-5,2.61h-.87v-2.78h.52a3.91,3.91,0,0,0,3-1.56,6.29,6.29,0,0,0,.69-4.18,5.91,5.91,0,0,0-1.39-3.82,3.64,3.64,0,0,0-2.78-1v-2.61Zm-7.13,8.69a27.55,27.55,0,0,1,.17-4,9.58,9.58,0,0,1,1.22-2.26,5.42,5.42,0,0,1,1.91-1.56,6,6,0,0,1,3.13-.87h.87v2.6H200a3.29,3.29,0,0,0-2.78,1.57,5.94,5.94,0,0,0-.87,4.17,5.16,5.16,0,0,0,1.56,3.82,3.44,3.44,0,0,0,2.44,1.05v2.78a7.25,7.25,0,0,1-4.7-1.57,7.79,7.79,0,0,1-2.43-5.38Z" transform="translate(-41.68 -7.65)"/><path class="cls-6" d="M220,297.22l3.13.7a7.21,7.21,0,0,1-1.92,4,6.91,6.91,0,0,1-4,1.56,6.57,6.57,0,0,1-5-1.56,8.78,8.78,0,0,1-2.61-5.39c-.18-2.61.17-4.52,1.39-6.09a6.57,6.57,0,0,1,5-2.6c1.91-.18,3.3,0,4.52,1a6.6,6.6,0,0,1,1.91,2.78l-2.95,1a3.45,3.45,0,0,0-1.4-1.73,3.66,3.66,0,0,0-2.08-.53,3.34,3.34,0,0,0-2.61,1.39,6,6,0,0,0-.52,4.18,5.26,5.26,0,0,0,1.39,4,3.34,3.34,0,0,0,2.78.87,2.16,2.16,0,0,0,1.91-1A4.53,4.53,0,0,0,220,297.22Z" transform="translate(-41.68 -7.65)"/><path class="cls-6" d="M285.55,250.47l2.95.34a2.91,2.91,0,0,0,.7,2.26,3.46,3.46,0,0,0,2.08,1.22h2.26a2.3,2.3,0,0,0,1-1.22v-1a6.78,6.78,0,0,0-1-.87,19.88,19.88,0,0,0-2.26-1.21,14.09,14.09,0,0,1-3.13-2.09,4.44,4.44,0,0,1-.69-3.3,3,3,0,0,1,1-1.91,4.64,4.64,0,0,1,2.26-1.22,8.11,8.11,0,0,1,2.95,0c1.92.35,3.31,1,4,2.08a4.31,4.31,0,0,1,.7,3.65l-3-.52c0-.87,0-1.39-.52-1.91a4.11,4.11,0,0,0-1.74-.87h-2.26a1.25,1.25,0,0,0-.69.87,1.32,1.32,0,0,0,.17.87,5.85,5.85,0,0,0,2.44,1.56A22.69,22.69,0,0,1,296,248.9a4.41,4.41,0,0,1,1.22,1.91,3.9,3.9,0,0,1,0,2.44,3.17,3.17,0,0,1-1.22,2.08,5.93,5.93,0,0,1-2.26,1.39h-3.47a6,6,0,0,1-4-2.26c-.87-1-1-2.43-1-4.17Z" transform="translate(-41.68 -7.65)"/><polygon class="cls-6" points="257.25 250.64 260.37 235.69 263.33 236.39 260.2 251.34 257.25 250.64"/><path class="cls-6" d="M312.83,255.51l.35-2.61,6.43,1.39-1.21,5.91a6.6,6.6,0,0,1-3.13,1h-3.65a8.76,8.76,0,0,1-3.83-1.91,6.05,6.05,0,0,1-2.08-3.3,8.4,8.4,0,0,1,0-4.17,10.68,10.68,0,0,1,1.91-4,8.11,8.11,0,0,1,3.48-2.26,6.44,6.44,0,0,1,3.65,0,6.79,6.79,0,0,1,4,2.09,5.6,5.6,0,0,1,1.39,3.65H317a2.89,2.89,0,0,0-.87-2.09,4,4,0,0,0-2.09-1,4.9,4.9,0,0,0-3.48.69,5.64,5.64,0,0,0-1.91,3.48,6.41,6.41,0,0,0,.35,4.17,4.55,4.55,0,0,0,2.78,1.91h1.91a4.17,4.17,0,0,0,1.74-.52l.35-1.91-3.3-.7Z" transform="translate(-41.68 -7.65)"/><polygon class="cls-6" points="279.15 255.33 282.27 240.39 285.23 240.91 289.23 252.21 291.31 242.12 293.92 242.82 291.14 257.77 287.84 257.07 284.01 246.12 281.93 255.86 279.15 255.33"/><path class="cls-6" d="M344,252a2.56,2.56,0,0,1,1.56.35,6.46,6.46,0,0,1,4.87,3.13,8.84,8.84,0,0,1,.87,6.08,8,8,0,0,1-3.13,5.22,6.83,6.83,0,0,1-4,1.21v-2.78a5,5,0,0,0,2.26-.69,6.12,6.12,0,0,0,1.91-3.65,6.51,6.51,0,0,0-.35-4.18,4.53,4.53,0,0,0-2.78-1.91h-1V252Zm-7.13,6.61a12.38,12.38,0,0,1,1.39-3.65,5.45,5.45,0,0,1,1.74-1.74,5.3,5.3,0,0,1,2.08-.87h1.74v2.78a3.46,3.46,0,0,0-2.26.7,6.06,6.06,0,0,0-1.91,3.65,6.42,6.42,0,0,0,.35,4.17,3.36,3.36,0,0,0,2.61,1.91h1v2.78A2.6,2.6,0,0,1,342,268a6.44,6.44,0,0,1-4.86-3.13c-1-1.56-1.22-3.65-.87-6.08Z" transform="translate(-41.68 -7.65)"/><polygon class="cls-6" points="237.08 296.7 235.17 280.71 238.3 281.23 239.52 293.05 245.08 282.8 248.03 283.32 240.04 297.4 237.08 296.7"/><polygon class="cls-6" points="246.29 298.61 249.25 283.67 252.03 284.36 249.08 299.14 246.29 298.61"/><polygon class="cls-6" points="251.68 299.83 254.81 284.88 257.42 285.4 261.07 296.53 262.98 286.62 265.59 287.14 262.46 302.09 259.68 301.57 256.2 290.62 254.29 300.35 251.68 299.83"/><path class="cls-6" d="M317,306.78l2.43,1.57a7.73,7.73,0,0,1-2.78,3.3,6.19,6.19,0,0,1-7.82-2.61,7.53,7.53,0,0,1-.53-5.91,8.73,8.73,0,0,1,3-5.39,5.71,5.71,0,0,1,5-1,5.14,5.14,0,0,1,3.65,2.44,5.35,5.35,0,0,1,.87,2.95h-3a2.6,2.6,0,0,0-.69-1.91,2.94,2.94,0,0,0-1.74-1,3.25,3.25,0,0,0-2.78.69,6,6,0,0,0-1.74,3.65,8.13,8.13,0,0,0,0,4.17,3.06,3.06,0,0,0,2.09,1.74,3.72,3.72,0,0,0,2.08-.35,4.37,4.37,0,0,0,1.57-2.26Z" transform="translate(-41.68 -7.65)"/><polygon class="cls-6" points="279.32 305.57 282.45 290.62 292.53 292.88 292.01 295.49 284.54 293.75 283.84 297.05 290.79 298.61 290.27 301.05 283.49 299.66 282.45 303.65 290.27 305.39 289.57 307.83 279.32 305.57"/><path class="cls-6" d="M334,311l2.78.35c0,1,0,1.74.52,2.26a2.91,2.91,0,0,0,1.91,1,8,8,0,0,0,2.09,0c.52-.34.87-.69.87-1.21v-1.05c0-.17-.35-.52-.87-.86-.17-.35-.87-.7-2.09-1.22a7.64,7.64,0,0,1-2.78-2.09,4.43,4.43,0,0,1-.69-3.3,4.65,4.65,0,0,1,1-2.08,3,3,0,0,1,2.09-1.05h2.78c1.74.35,2.95,1.05,3.47,2.09a5.17,5.17,0,0,1,.7,3.65l-2.78-.52a2.59,2.59,0,0,0-.35-1.74,3.33,3.33,0,0,0-1.56-.87,8,8,0,0,0-2.09.17c-.35,0-.52.35-.7.87a1.29,1.29,0,0,0,.35,1.05A11.94,11.94,0,0,0,341,308a25.78,25.78,0,0,1,2.78,1.74,7.17,7.17,0,0,1,1.22,1.91,5.84,5.84,0,0,1,0,2.43,3.26,3.26,0,0,1-1.22,2.26,4.31,4.31,0,0,1-2.08,1.39h-3.13a4.94,4.94,0,0,1-3.65-2.26,6.22,6.22,0,0,1-.87-4.17Z" transform="translate(-41.68 -7.65)"/><path class="cls-5" d="M79.4,300.35A6.46,6.46,0,0,1,85.83,307a6.56,6.56,0,0,1-6.43,6.6,6.7,6.7,0,0,1-6.6-6.6A6.6,6.6,0,0,1,79.4,300.35Z" transform="translate(-41.68 -7.65)"/><path class="cls-5" d="M194.12,90.38a17.27,17.27,0,0,1,1.39,5.74,13.43,13.43,0,0,1-1,5.74,14.72,14.72,0,0,1-3.13,4.86,13.4,13.4,0,0,1-4.87,3.3,13.88,13.88,0,0,1-5.74,1.4h0v-9.56a3.33,3.33,0,0,0,2.09-.53,4.26,4.26,0,0,0,2.43-2.78,5.41,5.41,0,0,0-.34-4,5.22,5.22,0,0,0-2.78-3,5.3,5.3,0,0,0-1.57-.35V81.69a18.48,18.48,0,0,1,5.39.87,17.55,17.55,0,0,1,4.87,3A16.06,16.06,0,0,1,194.12,90.38Zm-13.56,21.21a14.84,14.84,0,0,1-5.56-.87,13.94,13.94,0,0,1-4.69-3.13,16,16,0,0,1-3.31-4.87,10.91,10.91,0,0,1-1-3.12V93.34a4.93,4.93,0,0,1,.7-2.09,12.94,12.94,0,0,1,3.12-4.86,20.44,20.44,0,0,1,4.87-3.48,18.15,18.15,0,0,1,5.91-1.39h.17v9.56a3.6,3.6,0,0,0-2.25.52A3.65,3.65,0,0,0,176,94.21a5.84,5.84,0,0,0,.35,4.17,4.91,4.91,0,0,0,2.61,3,5.92,5.92,0,0,0,1.73.35v9.56h0Zm-14.77,8.86v-.69l.34.52h-.34Zm0-20.85a13.75,13.75,0,0,0-.35-2.61,11.81,11.81,0,0,1,.35-3.48v6.26h0Zm0,20.16-10.43-15.12,4.52-3.31-5.22-7.64L141.8,102.9v9.56l.7,1,4.51-3.13,10.78,15.47,7.82-5.56v-.7h0Zm-24,20.51V121.5c1.22,1.39,2.26,2.78,3.13,4a9.2,9.2,0,0,1,1.22,3.13,14.29,14.29,0,0,1-.53,6.09,18.11,18.11,0,0,1-3.65,5.38Zm0-37.2v9.56l-4.52-6.43,4.52-3.13Zm0,18.43h0l-10.43-11.13-7.3,6.95,10.43,11.13a7,7,0,0,1,1.91,3.13,2.55,2.55,0,0,1-.87,2.26c-.87.69-1.56,1-2.26.69-.87,0-1.73-1-2.95-2.26l-10.26-11.12-.52.35v13.9l3.48,3.83a32.32,32.32,0,0,0,3.65,3.47,8.08,8.08,0,0,0,3.13,1.39,10.42,10.42,0,0,0,6.08-.17,17.61,17.61,0,0,0,5.91-3.48h0V121.67h0ZM119.55,163V150l6.78,5.56-6.26,7.83Zm0-41.54v13.9l-7-7.47,7-6.43Zm0,28.5-7.82-6.43,3.48-4.34-7-5.74-3.3,4v14.77l.52-.69L119.55,163V150ZM105,188.94v-1.22h.52a8.74,8.74,0,0,1-.52,1.22Zm0-12.17v-12L115,170.69l-5,9Zm0-39.28v14.77l-3,3.65L95,150l10.09-12.51H105ZM105,165v12L85.83,165.82l5-8.87L105,165.12h0Zm0,22.6-16.51-7.83,2.26-5.21L85,171.73v17.38l16.17,7.65,3.65-8v-1.21H105ZM85,272V261.76h3.13L88.27,272Zm0-15.82v-9.9l3.83.52-1.39,9.73L85,256.2Zm0-15.64V227.7l6.26.87-1.39,9.9L85,240.56Zm0-19.12v-3.3c.35-.52.87-.87,1.22-1.39A9,9,0,0,0,87.74,214a1.57,1.57,0,0,0,0-1.74,1.13,1.13,0,0,0-.69-.87A2.52,2.52,0,0,0,85,212.75V200.58a10.34,10.34,0,0,1,4,0A9.29,9.29,0,0,1,95.22,206c1.39,2.78,1.39,5.74.52,9.21a19.9,19.9,0,0,1-2.26,5.22,30.28,30.28,0,0,1-3.82,4.69L85,221.44Zm0-49.54v17.38l-.69-.34-2.44,5.21-8.16-4,9-19.46,2.44,1.21H85Zm0,28.68v12.17c0,.17-.34.52-.52.87a10.58,10.58,0,0,1-.69,1.39,8.12,8.12,0,0,1-3.83,3.82,7.15,7.15,0,0,1-5,.35A9.22,9.22,0,0,1,68.8,214a12.29,12.29,0,0,1-.35-9,13.82,13.82,0,0,1,1.91-4.35,32.4,32.4,0,0,1,3.13-4.17l6.26,5a11,11,0,0,0-2.43,2.43c-.53.87-1,1.74-1.4,2.44a5.84,5.84,0,0,0,0,1.74,1.18,1.18,0,0,0,.7.87c.87.17,1.91-.87,3.13-3.48a3.68,3.68,0,0,1,.52-.87,7.8,7.8,0,0,1,3.82-3.65,2.42,2.42,0,0,0,1-.35H85Zm0,17.56a19.54,19.54,0,0,1-1.91,1.74L85,221.44v-3.3Zm0,9.56v12.86l-10.6,4.34h2.09a6.29,6.29,0,0,1,2.43.35l6.26.87V256l-25.21-3.65,1.39-9.91L77,235.87H74.88a29.28,29.28,0,0,1-3.13-.35l-9.21-1.39,1.39-9.74,21.38,3h0Zm0,34.06V272l-24.5.35V262.11l24.5-.52Z" transform="translate(-41.68 -7.65)"/><path class="cls-5" d="M434.33,302.44V292.18a5.21,5.21,0,0,0,3.3-.87,4.2,4.2,0,0,0,1.91-3.13,4,4,0,0,0-1-3.65,5.2,5.2,0,0,0-3.65-1.73h-.52V272.54h1.74a15,15,0,0,1,5.56,1.74,14.81,14.81,0,0,1,4.35,3.65,15.73,15.73,0,0,1,2.78,11.3A15.83,15.83,0,0,1,447,295a14,14,0,0,1-8.69,7.13,15.69,15.69,0,0,1-4,.52h0Zm0-46.93V245.08h.87a13.58,13.58,0,0,1,5.91.87,17.38,17.38,0,0,1,4.87,3,17.66,17.66,0,0,1,3.3,4.7,17.18,17.18,0,0,1,1.22,5.91,12.32,12.32,0,0,1-.35,3.47,11.53,11.53,0,0,1-.87,3.3l-10.43.35a19.65,19.65,0,0,0,1.91-2.78,9.74,9.74,0,0,0,.52-3.13,5.51,5.51,0,0,0-1.56-3.82,5.65,5.65,0,0,0-4-1.39,3.47,3.47,0,0,0-1.39.17h0Zm0-17v-10.6l12-2.43,1.92,10.08-13.91,2.78h0Zm0-17.2V219.7l.52,1.39h-.52Zm0-8.52V194.5a15,15,0,0,1,4,3.3,16.92,16.92,0,0,1,2.95,5.22,14.12,14.12,0,0,1,.7,8,14.64,14.64,0,0,1-3.48,7Zm0-18.43v18.26l-1.74-2.26a6.62,6.62,0,0,0,1-2.26,11.79,11.79,0,0,0-.17-2.44,4.07,4.07,0,0,0-2.78-2.78A7.26,7.26,0,0,0,426,203a6.7,6.7,0,0,0-3.83,2.78,4.91,4.91,0,0,0-.34,4.17,4.31,4.31,0,0,0,1.39,2.08,3.47,3.47,0,0,0,1.91.53l-1.39-4.18,6.25-2.26,4.52,13.39v1.56h-.69c-.35.35-.52.52-.7.52a22.16,22.16,0,0,1-4.34,1h-3.83a15.5,15.5,0,0,1-6.95-3.48,15.29,15.29,0,0,1-4.34-6.78,1.85,1.85,0,0,0-.18-.87v-8.86a3.66,3.66,0,0,1,.7-1.74,15.73,15.73,0,0,1,3.47-4.69,12.94,12.94,0,0,1,5-2.78,13.09,13.09,0,0,1,5.74-.87,11.84,11.84,0,0,1,5.39,1.39.64.64,0,0,1,.52.17h0Zm0,33.55v10.6l-13.56,2.61L418.86,231l15.47-3h0Zm0,17.21v10.43a3.76,3.76,0,0,0-2.43,1.39,5.34,5.34,0,0,0-1.39,4,10.22,10.22,0,0,0,.69,3c.52.87,1.22,1.91,2.09,3.13H422.68a23.7,23.7,0,0,1-1.21-3.13,22.93,22.93,0,0,1-.35-3.3,14.84,14.84,0,0,1,.35-4,20.94,20.94,0,0,1,1.21-3.48,15.79,15.79,0,0,1,5.22-5.91,12.87,12.87,0,0,1,6.43-2.08Zm0,27.29v10.25a5.84,5.84,0,0,0-3.48.87,4.33,4.33,0,0,0-1.91,3.3c0,1.39,0,2.61,1,3.65a5.19,5.19,0,0,0,3.65,1.74h.53v10.26h-1.92a15,15,0,0,1-5.56-1.74,15.19,15.19,0,0,1-4.34-3.82,18.11,18.11,0,0,1-2.44-5.22,16.6,16.6,0,0,1-.34-5.91,15.62,15.62,0,0,1,1.73-5.73,18.17,18.17,0,0,1,3.65-4.35,11.73,11.73,0,0,1,5-2.61,15.16,15.16,0,0,1,4-.52h0ZM413.3,190V179.72a6.25,6.25,0,0,0,2.26-.86,6,6,0,0,0,2.78-3.13,5.11,5.11,0,0,0-.52-3.83,4.81,4.81,0,0,0-3-2.26H413.3V159.56a8.9,8.9,0,0,1,3.65.52,11.09,11.09,0,0,1,5,2.78,14,14,0,0,1,3.82,4.52A16.55,16.55,0,0,1,427.9,173a16.86,16.86,0,0,1-.35,5.91,15.15,15.15,0,0,1-2.43,5,13.13,13.13,0,0,1-4.35,3.82,13.28,13.28,0,0,1-5.56,1.91c-.69,0-1.22.18-1.91.18h0Zm11.12,125.15a6.61,6.61,0,1,1-6.6,6.6A6.6,6.6,0,0,1,424.42,315.13Zm-21-179.9,4.87,6.08-4.87,4V135.05h0Zm9.91,24.51v10.08a4.5,4.5,0,0,0-2.43.87,5.24,5.24,0,0,0-2.61,2.95,5,5,0,0,0,.52,3.82,4.72,4.72,0,0,0,3,2.26h1.57V190a27,27,0,0,1-3.65-.52,14.74,14.74,0,0,1-5.22-2.61l-1-1V163.56a12.48,12.48,0,0,1,2.43-1.74,14.18,14.18,0,0,1,5.57-1.91h2.08Zm0,43.1v8.87a18,18,0,0,1-.7-5.22,16.15,16.15,0,0,1,.7-3.82Zm-27.64-55.79,16.51-13.56,1.4,1.74v10.25l-9.74,8,6.08,7.65-7,5.73-7.3-9V147.05Zm17.73,16.51-2.08,2.09a12.29,12.29,0,0,0-2.44,5,13.76,13.76,0,0,0-.35,5.91,13.3,13.3,0,0,0,1.92,5.56,19.8,19.8,0,0,0,2.78,3.65V163.56h.17ZM385.66,138a8,8,0,0,0,1.74-1.74,12.64,12.64,0,0,0,2.78-5.21,15.67,15.67,0,0,0,.52-5.74,10.43,10.43,0,0,0-1.74-5.56,19.69,19.69,0,0,0-3.47-4.35v22.43Zm-5.21,13.21,5.21-4.17v10.77l-5.21-6.6Zm5.21-35.63V138a7.32,7.32,0,0,1-2.78,1.91,14,14,0,0,1-5.39,1.57H376.1v-9.74h0a5.3,5.3,0,0,0,3.48-2.08,6.07,6.07,0,0,0,1.56-3.83,4.79,4.79,0,0,0-1.74-3.47,4.86,4.86,0,0,0-3.3-1.22v-9.73a11.7,11.7,0,0,1,4.17.69,17.54,17.54,0,0,1,5.22,3,.56.56,0,0,1,.35.17Zm-9.73-4v9.73h0a5,5,0,0,0-3.48,2.09,4.82,4.82,0,0,0-1.39,3.82,3.75,3.75,0,0,0,1.74,3.3,4.51,4.51,0,0,0,3.48,1.22v9.74a12.7,12.7,0,0,1-4.35-.7,19.82,19.82,0,0,1-5.21-2.95c-1.05-1.05-2.09-2.09-3-3.13V118a5.42,5.42,0,0,1,.87-1.22,18.85,18.85,0,0,1,4.52-3.82,14.72,14.72,0,0,1,5.39-1.56h1.56Zm-12.34-6.78V98.55l2.61,1.39Zm0-6.26v6.26l-10.95,20-8.87-4.87-.34-17a19.43,19.43,0,0,1-.87,1.91l-1.05,2.09-4.86,8.86-5.74-3.13v-6.78l10.78-19.64,8.51,4.87.53,17a17.92,17.92,0,0,1,.86-1.91l1.4-2.78,4.51-8.34,5.74,3.3h0Zm0,19.64a14.37,14.37,0,0,0-2.44,9.56,12.76,12.76,0,0,0,1.57,5.57,9.91,9.91,0,0,0,.87,1.39V118h0ZM331.08,90.91l2.79-7.48a9.85,9.85,0,0,0-2.61-2.08h-.35v9.73Zm0-9.91v9.73L330.22,93a8.77,8.77,0,0,0-1.92-2.78,5.32,5.32,0,0,0-2.6-1.74,4.83,4.83,0,0,0-4.35,0,4.89,4.89,0,0,0-2.78,3.3,5.77,5.77,0,0,0,0,4.18,5,5,0,0,0,3.13,2.78,5.62,5.62,0,0,0,2.95.52,9.65,9.65,0,0,0,3.65-.7l-4,9.74a19.39,19.39,0,0,1-3.31-.18,11.53,11.53,0,0,1-3.3-.87,22.13,22.13,0,0,1-3.48-1.73c-1-.87-1.91-1.57-2.78-2.44A14.66,14.66,0,0,1,308.31,96c-.52-2.61,0-5,.87-7.83a13.79,13.79,0,0,1,3.13-5,13.42,13.42,0,0,1,4.7-3.3,12.55,12.55,0,0,1,5.73-1.22,17.51,17.51,0,0,1,5.91,1A13.63,13.63,0,0,1,331.43,81h-.35Zm0,24.85-2.78,5,2.78,1.57v-6.61Z" transform="translate(-41.68 -7.65)"/><path class="cls-5" d="M415.56,377,401,368.49V354.23H413.3a7.71,7.71,0,0,0-2.09-.86,25.57,25.57,0,0,1-2.6-1.57L401,347.46v-1.22l4.34-7.65,24.16,14.08-4.86,8.69H407.74a6.5,6.5,0,0,0,1.91,1l2.08,1.05,8.69,5L415.56,377ZM401,390V379.26l9.56,3.83-7.13,8.17Zm0-21.55-9.56-5.57,5-8.51h4.69v14.25h0Zm0-21.21-.52-.35.52-.87v1.22Zm0,31.81v10.78l-.7-.35-4.86,5.73,2.08,3-7.12,8.17-.35-.7V387.26l1.39,2.26,2.78-3.13-3-1.39a5.19,5.19,0,0,0-1.39-.7v-9.73Zm-11.13-4.35v9.74c-.87-.52-1.56-.87-2.08-1.22-.7-.52-1.39-.87-2.09-1.39h0a17.82,17.82,0,0,0,1.57,1.91c.52.7,1.39,1.74,2.26,3.13l.34.52v18.43l-9.9-17.73V375.27l3.12-3.48,6.78,2.78h0Zm-9.9,40.16v-8.7l4.34,5.05-4.34,3.82Zm0-39.46V388.3l-4.18-7.82,4.18-5Zm0,30.76-8-9.21,4.17-3.82-5.91-6.95L361.33,394v12.34l3.13-2.78,12.34,14.25,3.13-2.78v-8.69h0Zm-18.6,22.25V418.2l7.3,5.91Zm0-34.59V406.2l-1,1.05-6.09-7,7.13-6.25h0Zm0,24.34v10.25l-2.09,1.22-2.6-2.43-6.44,4,1.05,3.48-2.78,1.74v-12l3.3-2.09-2.44-2.26a4.87,4.87,0,0,1-.86-1V407.25L361.33,418Zm-12.86-10.95v11.82a16.59,16.59,0,0,1-1.74-1.74,17.82,17.82,0,0,0-1.57-1.91h0a13.13,13.13,0,0,1,.87,2.43c.35.7.7,2.09,1.22,3.65l1,3.13h.18v11.82l-6.44,4-5.56-27.81V410.9l9.21-5.56,2.79,2.26h0Zm-12,34.93v0Zm0-31.46v1.74l-.34-1.39h.34Zm0,30.25v1.21A24,24,0,0,1,334,444.1a9.77,9.77,0,0,1-3,1.56,15.41,15.41,0,0,1-3.82,1,6.48,6.48,0,0,1-3.65,0,15.61,15.61,0,0,1-7.13-2.95,13.15,13.15,0,0,1-4.52-6.26,18,18,0,0,1-1.21-5.73,13,13,0,0,1,1.21-5.57,14.6,14.6,0,0,1,3.31-4.69,15.81,15.81,0,0,1,5.21-3.3,17.89,17.89,0,0,1,3.3-.87c1.05,0,2.26-.17,3.31-.17l3.82,9.73a13.28,13.28,0,0,0-3.3-.87,5.66,5.66,0,0,0-3,.52,4.87,4.87,0,0,0-3.13,3,6.18,6.18,0,0,0,0,4.34,5,5,0,0,0,2.79,3.13,5.75,5.75,0,0,0,4.17,0,8,8,0,0,0,2.6-1.56,14.45,14.45,0,0,0,2.26-3.13l3.48,9h0Zm-56.66,5.21-3.48-14.77,9.91-2.26,3.3,15a7.44,7.44,0,0,0,1.39,3.47,2.49,2.49,0,0,0,2.26.52,2.23,2.23,0,0,0,1.91-1.56,11.85,11.85,0,0,0,0-3.65l-3.47-15.12,9.73-2.26,3.48,14.95a19.1,19.1,0,0,1,.69,4.86,7.37,7.37,0,0,1-.52,3.48,12.53,12.53,0,0,1-3.47,5,14.28,14.28,0,0,1-6.09,2.95,14.63,14.63,0,0,1-6.78,0,12.27,12.27,0,0,1-5.38-2.78,10.83,10.83,0,0,1-1.92-2.78,32.23,32.23,0,0,1-1.56-4.86h0Zm-25,14.08-.35-12.34-9.91-15.47L256,432.1l2.6,5.39c.18.52.53,1.22.87,2.09h0a15.81,15.81,0,0,1,.7-1.74v-.35l2.08-5.56,11.48-.35-9.22,16.17.52,12.51-10.08.35Z" transform="translate(-41.68 -7.65)"/><path class="cls-5" d="M217.93,427.93l9,1.74,4.34,29.55-10.6-2.09-.35-3.65-2.6-.52v-6.78l2.08.35-.34-3.3V437h0a8.71,8.71,0,0,1-.7,2.43,11.82,11.82,0,0,1-1,2.26V428.11Zm-17,25.38L216,427.41l1.91.52v13.56a3.77,3.77,0,0,1-.52,1.22l-1.39,3,1.91.35v6.78l-4.87-.87-1.56,3.13L200.9,453h0Zm-15-7.13v-9h.87a4.79,4.79,0,0,0,3-3.12,4.74,4.74,0,0,0,0-4.35,5.89,5.89,0,0,0-3.65-3h0v-9.55l1.22.52a37.21,37.21,0,0,1,5.91,2.95,16.61,16.61,0,0,1,3.65,3,15.34,15.34,0,0,1,3.3,6.78,14.1,14.1,0,0,1-.87,7.47,12.83,12.83,0,0,1-4.34,5.91,16,16,0,0,1-7.13,2.61h-1.74Zm0-29.2v9.39h-.17l-4,10.08a8.34,8.34,0,0,0,4.34.69v9a9,9,0,0,1-3-.35,55.29,55.29,0,0,1-6.78-2.43l-4.52-1.74v-6.6L180,414.55,186.3,417H186Zm-14.6-2.43,2.26-3.83-2.26-1.39Zm0-5.22v5.22l-12,20.33-6.26-3.82V425.5l11.82-20,6.43,4h0Zm.17,25.55-2.26,5.74,2.26,1v-6.6h0Zm-18.42-25.2.17-.35q2.86-3.65,2.09-7.3a10.45,10.45,0,0,0-2.26-4.34v12Zm0-12v12a7,7,0,0,1-3.83,2.61,5.87,5.87,0,0,1-4.51-.7l-1,13.73-.35-.34V404.81h.35c.7,0,1.22-.34,1.74-1.21a2.59,2.59,0,0,0,.7-2.09,2.46,2.46,0,0,0-1.39-1.91l-1.22-.87-.35.52V389.17l6.95,5.56a13.81,13.81,0,0,1,2.78,2.78h0Zm0,27.81v5.56l-2.44-1.39Zm-9.91-36.16v10.09l-2.95,3.82,1.21,1a3.66,3.66,0,0,0,1.74.7v20.16l-8.52-6.78,1.74-10.43-5.73,7.3-.53-.52v-15l9.91-12.86,3,2.26h0Zm-12.86-1.73,1.39,1.56,5.91-4.87-7.13-8.69v12Zm0-12v12L126,382.39l-2.08,1.74,5.21,6.26-5.56,4.52-5.21-6.09-2.09,1.92,5.74,6.95-5.74,4.86-4.52-5.38V381.52l13.73-11.64,4.87,5.73Zm0,24.34-7.3,9.38,7.3,5.57V400Zm-18.6-29.9,7.65-6.08-5-9.21-2.61.52v14.77Zm0-14.6v14.6l-14.6,11.47-4.69-8.69,9-6.6,2.08-1.57a14.82,14.82,0,0,0,2.26-1.39c-.87.35-1.74.52-2.43.87-.87.18-1.91.52-3,.7l-11,2.43-3-5.21,7.82-8.17a25.84,25.84,0,0,1,2.26-2.09c.69-.52,1.22-1.22,1.91-1.74-.69.35-1.56.7-2.26,1.05-.87.34-1.74.69-2.43,1l-10.26,4.34-4.69-8.69,26.77-9.38,5,9-5,5.21a2.57,2.57,0,0,0-.7.7,55.6,55.6,0,0,1-5.56,4.86h0c1-.17,2.26-.69,3.65-1s2.78-.7,4.52-1.22l4.34-.87h0Zm0,26.07L104.08,388l7.65,9.22Z" transform="translate(-41.68 -7.65)"/><path class="cls-7" d="M294.24,98.9v-8h.52s-.35-.53-.52-.87V69.7l12.68,3-1.73,7.48L296.67,78l-.7,2.78,7.83,1.74-1.57,7.13-5.39-1.22c.52,1,.87,2.09,1.22,3v.34l4.52,1-1.74,7.47-6.6-1.56h0Zm0-41V52.67a13.17,13.17,0,0,0,1-2.44h0a3.73,3.73,0,0,0-.18-1.56c0-.18-.34-.35-.69-.52V44.84a6.07,6.07,0,0,1,3.3,2.09,5,5,0,0,1,.7,4h0c-.35,1.91-1.57,4.34-4,7.12Zm0-13.21V48c-.18,0-.53-.34-.87-.34-1.92-.53-4.87-.18-8.35.69-4.17,1-8.17,2.26-12.16,3.65v-3.3a109.76,109.76,0,0,1,11.47-3.48,21.86,21.86,0,0,1,9.73-.69h.18Zm0,7.82v5.22h0a80.86,80.86,0,0,1-7.13,8c-1.91,1.91-4,3.65-6.08,5.39,1.56,1.22,3,2.61,4.34,3.82.52.53,1.22,1,1.74,1.57l1.74-8,5.56,1.22v20l-.35,1.22h.52v8h-1a39.22,39.22,0,0,1-11-1.56c-3.3-.87-6.43-1.92-9.56-3v-3.3c3.3,1.22,6.78,2.26,10.08,3.13l3.3-14.08c-1-1-1.91-1.91-3-2.78-1.56-1.39-3.13-2.78-4.87-4.17-1.91,1.56-3.65,2.95-5.56,4.34V73.7c1-.87,2.26-1.57,3.13-2.44l-.35-.34c-1-.7-1.91-1.39-2.78-2.09V65c1.56,1,3.13,2.26,4.69,3.3.35.17.52.52.87.69a63.73,63.73,0,0,0,6.26-5.56,58,58,0,0,0,6.95-7.65h0a12.83,12.83,0,0,0,2.44-3.47Zm-21.38-3.82V52c-1.39.35-2.61.87-3.83,1.22a94.11,94.11,0,0,1,.7,9.9c1,.7,2.08,1.4,2.95,2.09V69c-1-.69-1.91-1.39-2.95-2.08a79.63,79.63,0,0,1-.35,9,22.08,22.08,0,0,0,3.3-2.26v3.82a23.51,23.51,0,0,1-3.47,2.26c-.35,3.13-.7,6.26-1.22,9.39,1.56.69,3.13,1.21,4.69,1.74v3.3c-1.74-.7-3.47-1.22-5.21-1.91-.87,5-2.09,10.08-3.48,15.29-.35,1.22-.69,2.61-1,3.65V99.42c.52-2.78,1.22-5.39,1.56-8.17a11.09,11.09,0,0,0-1.56-.69v-3.3a10.77,10.77,0,0,1,2.08.86c.35-2.08.7-4.17.87-6.25-.87.52-1.91,1-2.95,1.74V80c1-.7,2.08-1.22,3.3-1.92a112,112,0,0,0,.35-13.21A40.16,40.16,0,0,1,263,62.57V58.92l3.48,1.92-.7-6.61L263,55.45V52c.87-.35,1.74-.69,2.43-1a80.8,80.8,0,0,0-1.56-8.87,32,32,0,0,1-.87-3.47V28.85a19.83,19.83,0,0,0,.87,2.44h0c1.21,3.47,2.08,6.78,2.95,10.25a69.64,69.64,0,0,1,1.57,8.35,31,31,0,0,1,4.34-1.4h0Zm-9.74,26.94h3.13v-9h-3.13ZM251,86.39V84.82l-1.92-1V80.13A11.37,11.37,0,0,1,251,81.35V75.61H249v-9h14.08v9h-2.43v5.74a16.83,16.83,0,0,0,2.43-1.4v3.66c-.87.34-1.56.86-2.43,1.21v1.39c.87.35,1.56.7,2.43,1.05v3.3c-.87-.35-1.56-.7-2.43-1v4.7h-9.91V89.69c-.69.35-1.21.52-1.91.87v-3.3l1.91-.7h0ZM263.12,29v9.73c-.69-2.09-1.21-4.34-2.08-6.43h0a15.56,15.56,0,0,0-3.31-6.08h0c-.52-.53-1-.7-1.39-.53a2.09,2.09,0,0,0-1.56,1.05c-1.39,1.39-2.61,4.17-3.65,7.47-.87,2.61-1.39,5.22-2.09,7.82V30.77a15.24,15.24,0,0,1,3.65-6.26,6.36,6.36,0,0,1,3.48-1.91A4.78,4.78,0,0,1,260,24h0a15.59,15.59,0,0,1,3.31,5h-.18Zm0,23.29v3.47l-3.65,1.57,3.65,1.91v3.65c-2.43-1.39-4.69-2.61-7.12-3.82-2.44,1.21-4.7,2.43-7,3.65V59.1c1.05-.52,2.26-1.22,3.31-1.74-1-.52-2.26-1-3.31-1.57v-3.3c2.26,1,4.7,2.09,7,3.13,2.26-1,4.69-2.26,7.12-3.13h0Zm0,47.28v11.82a19.79,19.79,0,0,1-4,7.3,5,5,0,0,1-4,1.73,6.24,6.24,0,0,1-3.83-1.91,12.32,12.32,0,0,1-2.26-3.3V106.9a1.28,1.28,0,0,0,.35,1h0c1.22,3.65,2.61,6.78,4.17,8.34.7.7,1.22,1,1.74,1a2.12,2.12,0,0,0,1.74-.86c1.39-1.39,2.95-4.52,4.17-9.56.7-2.44,1.39-4.87,1.91-7.3ZM249,83.78l-4.17-2.26.52,7L249,87.26v3.3c-1,.52-2.08.87-3.12,1.39.34,2.08.69,4.34,1,6.43A67.48,67.48,0,0,0,249,106.9v8.34a27.52,27.52,0,0,1-2.6-6.43h0A67.56,67.56,0,0,1,244,98.9c-.34-1.91-.69-4-1-5.91a37.25,37.25,0,0,1-4,1.39v-3.3c1.22-.35,2.44-.87,3.65-1.22v-1c-.34-3.13-.52-6.26-.69-9.39a15.2,15.2,0,0,1-2.78-1.91V73.7a27.08,27.08,0,0,0,2.78,1.91,73.58,73.58,0,0,1,.35-8.69c-1.05.69-1.92,1.39-3.13,2.08V65.18c1-.69,2.26-1.39,3.47-2.26.35-3.13.7-6.26,1.22-9.39-1.56-.69-3.13-1.21-4.69-1.73V48.49c1.73.53,3.47,1.22,5.21,1.92a151,151,0,0,1,4.17-17,15.27,15.27,0,0,1,.87-2.6V42.06c-.87,3.13-1.39,6.26-2.08,9.39a10.23,10.23,0,0,1,2.08.87v3.3l-2.61-1c-.34,2.08-.69,4.17-.86,6.26,1.21-.7,2.26-1.22,3.47-1.92v3.65a27.64,27.64,0,0,0-3.82,2.26c-.35,4.35-.52,8.52-.52,12.69,1.39.87,2.78,1.74,4.34,2.61v3.65H249Zm0-17.21h-3.65v9H249Zm-10.25-17.9V52a124.36,124.36,0,0,0-12.17-3.65c-3.47-.87-6.43-1.22-8.17-.69a3.28,3.28,0,0,0-1.74.86,2.24,2.24,0,0,0-.17,1.57h0c.35,1.56,1.39,3.48,3.48,5.91h0A100.52,100.52,0,0,0,227,63.62c2.09,1.91,4,3.82,6.26,5.56.34-.18.69-.52,1-.7a42.93,42.93,0,0,1,4.52-3.3V69c-.87.7-1.91,1.4-2.78,2.09l-.35.35c1,.87,2.09,1.56,3.13,2.43V77.7c-1.91-1.4-3.65-2.61-5.56-4.18l-4.7,4.18c-2.43,2.26-4.69,4.51-6.95,7h0c-2.43,2.95-4.52,5.73-5,8v2.09a2.13,2.13,0,0,0,1.56,1c2.09.52,5.22.18,10.26-1.21,3.48-.87,6.95-2.09,10.25-3.13v3.3c-3.12,1-6.25,2.09-9.38,3-5.56,1.57-9.39,1.74-11.82,1.22a5.52,5.52,0,0,1-3.65-2.78,6,6,0,0,1-.35-4.35,24,24,0,0,1,5.74-9.21h0a72.18,72.18,0,0,1,7.12-7.3c1.39-1.21,3-2.61,4.35-3.82l-5.91-5.39a103,103,0,0,1-7.3-7.82h0c-2.43-3-3.82-5.39-4.17-7.48h0a4.5,4.5,0,0,1,.87-4,5.39,5.39,0,0,1,3.47-2.09,21.78,21.78,0,0,1,9.74.7c4,1,7.64,2.08,11.47,3.3Z" transform="translate(-41.68 -7.65)"/><path class="cls-8" d="M410.69,32.33a17.92,17.92,0,0,1,17.73,18.25,17.91,17.91,0,1,1-35.81,0,18,18,0,0,1,17.91-18.25h.17Zm0,2.78c-8,0-14.43,7-14.43,15.47s6.44,15.47,14.61,15.47c8,0,14.42-6.78,14.42-15.47s-6.43-15.47-14.42-15.47h-.18Zm-3.47,26.07h-3.13V40.85a45.19,45.19,0,0,1,5.73-.52,12.24,12.24,0,0,1,6.26,1.56A4.82,4.82,0,0,1,418,46.06a5.92,5.92,0,0,1-4,5h0c1.74.52,3,2.09,3.31,5a20,20,0,0,0,1.21,5h-3.3c-.52-.69-1-2.6-1.39-5.21-.52-2.61-1.74-3.65-4.35-3.65h-2.25v8.86Zm0-11.3h2.25c2.61,0,4.87-1,4.87-3.47s-1.22-3.48-4.87-3.48h-2.25Z" transform="translate(-41.68 -7.65)"/></svg>