<svg id="Capa_2" data-name="Capa 2" xmlns="http://www.w3.org/2000/svg" viewBox="0 0 484.03 418.06"><defs><style>.cls-1{fill:#1d1d1b;stroke:#1d1d1b;stroke-miterlimit:10;}</style></defs><path class="cls-1" d="M320.57,71.59c-9.6,17.82-25,47.82-21.45,52.42.1.14,1.69,2.18,3.75,4.77,1.73,2.18,3.15,3.95,4.08,5.11a36.62,36.62,0,0,1,2.45,3.1c2.74,3.63,4.57,6.1,7.91,10.74l6,8.28a124.65,124.65,0,0,1,14.85-2.57c15.92-1.75,21.46.8,26.62-3.62,1.19-1,3.1-6.11,6.87-16.27,3.39-9.12,4.89-13.8,4.43-16-1.87-9-13.08-9.06-15-17-2-8.28,9.2-12.58,11-22.2,3.24-17.75-27.41-45.05-60.93-49.71-8-1.11-30.47-4.23-49.36,10.56-18.63,14.58-26.57,40.88-20.43,67.4-43.68,28.54-61.19,58.21-68.76,81.36-11.14,34.06-11.92,88.17-11.92,88.17S146.78,244,120.74,224.44c0,0-23.12-17.34-46.64-16a56.73,56.73,0,0,0-14,2.72,55.71,55.71,0,0,0-7.48,3.41C9.6,238.53,6.36,285,6.36,285c-.61,8.71-1.46,40.89,23.49,64.68,17.34,16.54,45.32,27.26,72.51,18.72,18.78-5.9,30-18.74,34.72-24.85l-10.47-11.37C122.87,336.7,110,351,89.08,353.8c-25.8,3.5-49.7-12.31-60.94-32.68-14.06-25.5-8.62-58.81,12.26-78,13.39-12.28,33.85-19.38,52.43-15,33,7.81,50.55,49.61,60.42,73.07,1.35,3.2,11.07,26.68,11.07,26.68s19.77,42.84,51.74,74.21A183,183,0,0,0,247.72,427l-82-1.7v19.4l169.53-1q-.16-9-.34-18c-16.23,1.89-53.49,3.76-88.85-18C204.56,382,188.59,338,181.34,318.06a130.16,130.16,0,0,1-5.11-16.68c-5.83-25.39-2.43-47.59,2.49-77.89,1.5-9.21,2.25-13.82,3.3-17.77,2-7.52,8.48-30.87,27.58-51.06,8.1-8.56,31.55-30.36,41.52-38.48a15.09,15.09,0,0,0,5.45-7.83c1.21-4.74-.83-9-1.36-10.21-4.38-10.38,2.09-37.42,20.42-49,15.37-9.73,33.54-5.11,45.62-2a60.71,60.71,0,0,1,17,7.15c2.94,1.81,19.46,12,17.84,21.44-.21,1.19-1.77,3.86-4.9,9.19-3.32,5.66-4.21,6.5-4.77,7.83-1.59,3.82-.16,10.94,14.64,25.54q-3.57,10.89-7.15,21.78l-24.17,2.05-18-21.11q9.52-20.94,19.06-41.87Z" transform="translate(-5.65 -27.14)"/><path class="cls-1" d="M285.21,108.74l7.66-11.88c-8.36-3.29-11.36-12.31-8.3-17.87,2.22-4,7.69-6.31,13.4-5.36l4.22,2.43q2.42-6,4.85-12a30.18,30.18,0,0,0-11.75-2.43,23.29,23.29,0,0,0-11.61,2.43c-7.05,3.78-9.56,10.9-10.22,13-.62,1.88-4.88,15.36,2.8,25.38a21.9,21.9,0,0,0,5.88,5.26Z" transform="translate(-5.65 -27.14)"/><path class="cls-1" d="M488.74,168.27l-146.55.34a79.83,79.83,0,0,0,2.55,28.94c2.69,9.57,12.8,38.5,39.46,47.62a52.55,52.55,0,0,0,20.63,2.59c.05,2.67.11,5.33.17,8a114,114,0,0,1-34.73,15.66A128,128,0,0,0,351.55,242c-5.16-6-8.94-9.21-13.62-11.57a38.88,38.88,0,0,0-16.51-4.09c-10.19-22.06-11.4-30.47-11.4-30.47-.14-1-.27-4.62-.51-11.91-.65-19-.06-25.4,3.74-31.15a24.57,24.57,0,0,1,3.41-4.09l-11.58-15.83a92,92,0,0,0-7.66,17.54c-11.07,34.95,2.11,67.22,8.34,80.17A20.88,20.88,0,0,0,295,234.31a17,17,0,0,0-2,1.64,20.62,20.62,0,0,0-4.85,7.89,89.65,89.65,0,0,1-16.72-27.06c-12.37-31.65-2.45-60.88,1-69.9a66,66,0,0,1-7.62-2.27c-3.1-1.14-4.36-1.87-5.79-1.36-1.65.59-2.39,2.44-3.4,5.79-2.14,7.06-3.45,11.53-3.75,19.57-.12,3.25,0,5.7,0,6.3.83,19.9,1.34,32.15,4.83,45,2.42,8.89,7.69,23.35,20.37,39.23a293.38,293.38,0,0,0-32.4,93.94l14.69,1.72A334.22,334.22,0,0,1,285.17,273a116,116,0,0,1,7.66-12.77c5.38-7.8,8.23-11.93,13.17-14.93,2.55-1.55,9.48-5.12,20.87-3.28a50.3,50.3,0,0,1,17.53,12.09,51.41,51.41,0,0,1,13.11,27.74q-8.31,21.74-17,43.75-14.83,37.45-30,73.53a11.35,11.35,0,0,0,.68,6.81,11.48,11.48,0,0,0,5.79,5.78c-.06,1-.12,2.05-.17,3.07l5.95.34v-3.41l9.19.17c-.05-1.07-.11-2.15-.17-3.23l27.75-.34A25.89,25.89,0,0,1,378.1,429a28.52,28.52,0,0,1-1,13.95h16.34a39.67,39.67,0,0,0-2.72-22.64A38.63,38.63,0,0,0,383,409.12V405l20.59-.35a34.53,34.53,0,0,1,15.66,12.09c8.2,11.55,6.09,24.22,5.62,26.72l15.49.51a74.63,74.63,0,0,0-.51-10.38c-.36-3.05-1.84-13.76-6.13-22-7.81-14.94-24.59-20.78-29.44-22.29L374.53,389l35.4-88.69-14.47-6.12q-17.77,49.18-35.57,98.38l-30.3.34Q350,340.36,370.44,287.76a90.52,90.52,0,0,0,39.38-18A88.45,88.45,0,0,0,428,250.14c5.68-1,28.63-5.81,45.45-27.23C491.82,199.47,489.33,173.39,488.74,168.27Zm-33.11,51.91c-7.57,14.64-33,14.39-42.12,14.3-9.6-.09-19.28-.19-29.24-6.64a43.41,43.41,0,0,1-14.17-15.32l87.58.52A19.32,19.32,0,0,1,455.63,220.18ZM469.93,201l-109,.51q-2.87-9.2-5.74-18.39L473.63,183Q471.79,192,469.93,201Z" transform="translate(-5.65 -27.14)"/><path class="cls-1" d="M395.33,74.63H407.5a31.56,31.56,0,0,0,.52,11,32.39,32.39,0,0,0,7.27,14.17c1.61,7.53,3.06,20.48-2.74,33.79a49.46,49.46,0,0,1-3.38,6.42,27.4,27.4,0,0,0-1.79,16.47H395.76a32.46,32.46,0,0,1,9.19-31V106.18c-.93-1.75-1.84-3.59-2.7-5.54A86.94,86.94,0,0,1,395.33,74.63Z" transform="translate(-5.65 -27.14)"/><path class="cls-1" d="M424.57,74.63h12.17a31.81,31.81,0,0,0,.52,11,32.28,32.28,0,0,0,7.28,14.17c1.6,7.53,3,20.48-2.74,33.79a49.47,49.47,0,0,1-3.39,6.42,27.37,27.37,0,0,0-2,7.15,27.67,27.67,0,0,0,.25,9.32H425a32.43,32.43,0,0,1,9.2-31V106.18c-.94-1.75-1.84-3.59-2.71-5.54A87.55,87.55,0,0,1,424.57,74.63Z" transform="translate(-5.65 -27.14)"/></svg>