<?xml version="1.0" encoding="utf-8"?>
<!-- Generator: Adobe Illustrator 26.0.0, SVG Export Plug-In . SVG Version: 6.00 Build 0)  -->
<svg version="1.1" id="Capa_2_00000022518393753571638370000007460977194939560359_"
	 xmlns="http://www.w3.org/2000/svg" xmlns:xlink="http://www.w3.org/1999/xlink" x="0px" y="0px" viewBox="0 0 484 418.1"
	 style="enable-background:new 0 0 484 418.1;" xml:space="preserve">
<style type="text/css">
	.st0{fill:#FFFFFF;stroke:#FFFFFF;stroke-miterlimit:10;}
</style>
<path class="st0" d="M314.9,44.5c-9.6,17.8-25,47.8-21.5,52.4c0.1,0.1,1.7,2.2,3.8,4.8c1.7,2.2,3.1,4,4.1,5.1c0.9,1,1.7,2,2.5,3.1
	c2.7,3.6,4.6,6.1,7.9,10.7l6,8.3c4.9-1.2,9.9-2,14.9-2.6c15.9-1.8,21.5,0.8,26.6-3.6c1.2-1,3.1-6.1,6.9-16.3
	c3.4-9.1,4.9-13.8,4.4-16c-1.9-9-13.1-9.1-15-17c-2-8.3,9.2-12.6,11-22.2c3.2-17.7-27.4-45-60.9-49.7c-8-1.1-30.5-4.2-49.4,10.6
	c-18.6,14.6-26.6,40.9-20.4,67.4c-43.7,28.5-61.2,58.2-68.7,81.4c-11.2,34.1-12,88.2-12,88.2s-13.9-32.1-39.9-51.7
	c0,0-23.1-17.3-46.6-16c-4.8,0.3-9.5,1.2-14,2.7c-2.6,1-5,2.1-7.4,3.4c-43,24-46.3,70.4-46.3,70.4c-0.6,8.7-1.5,40.9,23.5,64.7
	c17.3,16.5,45.3,27.3,72.5,18.7c18.8-5.9,30-18.7,34.7-24.9L121,305c-3.7,4.5-16.6,18.8-37.5,21.6c-25.8,3.5-49.7-12.3-60.9-32.7
	c-14.1-25.5-8.6-58.8,12.3-78c13.3-12.2,33.8-19.3,52.4-14.9c33,7.8,50.6,49.6,60.4,73.1c1.4,3.2,11.1,26.7,11.1,26.7
	s19.8,42.8,51.7,74.2c9.6,9.4,20.2,17.8,31.7,24.9l-82-1.7v19.4l169.5-1c-0.1-6-0.2-12-0.3-18c-16.2,1.9-53.5,3.8-88.8-18
	c-41.5-25.7-57.5-69.7-64.7-89.6c-2.1-5.4-3.8-11-5.1-16.7c-5.8-25.4-2.4-47.6,2.5-77.9c1.5-9.2,2.2-13.8,3.3-17.8
	c2-7.5,8.5-30.9,27.6-51.1c8.1-8.5,31.5-30.4,41.5-38.5c2.6-1.9,4.5-4.7,5.4-7.8c1.2-4.7-0.8-9-1.4-10.2c-4.4-10.4,2.1-37.4,20.4-49
	c15.4-9.7,33.5-5.1,45.6-2c6,1.5,11.7,3.9,17,7.1c2.9,1.8,19.5,12,17.8,21.4c-0.2,1.2-1.8,3.9-4.9,9.2c-3.3,5.7-4.2,6.5-4.8,7.8
	c-1.6,3.8-0.2,10.9,14.6,25.5c-2.4,7.3-4.8,14.5-7.1,21.8l-24.2,2l-18-21.1c6.4-13.9,12.7-27.8,19.1-41.8L314.9,44.5z"/>
<path class="st0" d="M279.5,81.7l7.7-11.9c-8.4-3.3-11.4-12.3-8.3-17.9c2.2-4,7.7-6.3,13.4-5.4l4.2,2.4c1.6-4,3.2-8,4.9-12
	c-3.7-1.6-7.7-2.4-11.8-2.4c-4-0.2-8,0.6-11.6,2.4c-7,3.8-9.6,10.9-10.2,13c-0.6,1.9-4.9,15.4,2.8,25.4c1.6,2.1,3.6,3.9,5.9,5.3
	L279.5,81.7z"/>
<path class="st0" d="M483.1,141.2l-146.6,0.3c-0.9,9.7-0.1,19.5,2.5,28.9c2.7,9.6,12.8,38.5,39.5,47.6c6.6,2.2,13.6,3.1,20.6,2.6
	c0,2.7,0.1,5.3,0.2,8c-10.6,7.1-22.4,12.4-34.7,15.7c-4.9-10.6-11.2-20.5-18.7-29.4c-5.2-6-8.9-9.2-13.6-11.6
	c-5.1-2.6-10.8-4-16.5-4.1c-10.2-22.1-11.4-30.5-11.4-30.5c-0.1-1-0.3-4.6-0.5-11.9c-0.6-19-0.1-25.4,3.7-31.2
	c1-1.5,2.1-2.9,3.4-4.1l-11.6-15.8c-3.2,5.6-5.7,11.4-7.7,17.5c-11.1,35,2.1,67.2,8.3,80.2c-3.9,0.2-7.6,1.5-10.8,3.7
	c-0.7,0.5-1.4,1-2,1.6c-2.2,2.2-3.8,4.9-4.9,7.9c-7.1-8-12.8-17.1-16.7-27.1c-12.4-31.6-2.5-60.9,1-69.9c-2.6-0.6-5.1-1.4-7.6-2.3
	c-3.1-1.1-4.4-1.9-5.8-1.4c-1.6,0.6-2.4,2.4-3.4,5.8c-2.1,7.1-3.4,11.5-3.8,19.6c-0.1,3.2,0,5.7,0,6.3c0.8,19.9,1.3,32.2,4.8,45
	c2.4,8.9,7.7,23.4,20.4,39.2c-16.1,29.2-27,61-32.4,93.9l14.7,1.7c5.1-28.3,13.7-55.8,25.8-81.8c2.3-4.4,4.8-8.7,7.7-12.8
	c5.4-7.8,8.2-11.9,13.2-14.9c2.5-1.6,9.5-5.1,20.9-3.3c6.6,2.7,12.6,6.9,17.5,12.1c7.1,7.7,11.7,17.4,13.1,27.7
	c-5.5,14.5-11.2,29.1-17,43.7c-9.9,25-19.9,49.5-30,73.5c-0.5,2.3-0.2,4.7,0.7,6.8c1.2,2.6,3.2,4.6,5.8,5.8c-0.1,1-0.1,2-0.2,3.1
	l6,0.3v-3.4l9.2,0.2c0-1.1-0.1-2.1-0.2-3.2l27.8-0.3c9.7,2.7,16.9,10.8,18.6,20.7c0.8,4.7,0.5,9.5-1,14h16.3
	c1.3-7.7,0.4-15.5-2.7-22.6c-1.9-4.2-4.5-7.9-7.7-11.2v-4.1l20.6-0.4c6.3,2.4,11.7,6.6,15.7,12.1c8.2,11.5,6.1,24.2,5.6,26.7
	l15.5,0.5c0.1-3.5-0.1-6.9-0.5-10.4c-0.4-3-1.8-13.8-6.1-22c-7.8-14.9-24.6-20.8-29.4-22.3l-29.8-0.3l35.4-88.7l-14.5-6.1
	c-11.9,32.8-23.7,65.6-35.6,98.4l-30.3,0.3c13.6-35,27.2-70.1,40.9-105.1c14.4-2.7,27.9-8.9,39.4-18c7-5.6,13.1-12.2,18.2-19.6
	c5.7-1,28.6-5.8,45.5-27.2C486.2,172.4,483.7,146.3,483.1,141.2z M450,193.1c-7.6,14.6-33,14.4-42.1,14.3
	c-9.6-0.1-19.3-0.2-29.2-6.6c-5.9-3.9-10.8-9.1-14.2-15.3l87.6,0.5C451.8,188.4,451.2,190.8,450,193.1L450,193.1z M464.3,173.9
	l-109,0.5c-1.9-6.1-3.8-12.3-5.7-18.4l118.4-0.1C466.8,161.9,465.5,167.9,464.3,173.9L464.3,173.9z"/>
<path class="st0" d="M389.7,47.5h12.2c-0.5,3.7-0.3,7.4,0.5,11c1.2,5.3,3.7,10.1,7.3,14.2c1.6,7.5,3.1,20.5-2.7,33.8
	c-1,2.2-2.1,4.4-3.4,6.4c-2.3,5.2-2.9,10.9-1.8,16.5h-11.6c-2.7-11.2,0.8-23,9.2-31V79.1c-0.9-1.8-1.8-3.6-2.7-5.5
	C393,65.3,390.6,56.5,389.7,47.5z"/>
<path class="st0" d="M418.9,47.5h12.2c-0.5,3.7-0.3,7.4,0.5,11c1.2,5.3,3.7,10.1,7.3,14.2c1.6,7.5,3,20.5-2.7,33.8
	c-1,2.2-2.1,4.4-3.4,6.4c-1,2.3-1.7,4.7-2,7.2c-0.4,3.1-0.4,6.2,0.2,9.3h-11.7c-2.7-11.2,0.8-23,9.2-31V79.1
	c-0.9-1.8-1.8-3.6-2.7-5.5C422.2,65.3,419.9,56.5,418.9,47.5z"/>
</svg>
