<svg id="Capa_1" data-name="Capa 1" xmlns="http://www.w3.org/2000/svg" viewBox="0 0 949 619"><defs><style>.cls-1,.cls-12,.cls-15,.cls-17,.cls-9{fill:#fff;}.cls-1,.cls-3{stroke:#1d1d1b;}.cls-1,.cls-2,.cls-3,.cls-8{stroke-miterlimit:10;}.cls-2{fill:#cf9903;stroke:#c68a0d;}.cls-3{fill:#f2f2f2;}.cls-15,.cls-16,.cls-4,.cls-8{font-size:23.86px;}.cls-29,.cls-4{fill:#1d1d1b;}.cls-11,.cls-12,.cls-14,.cls-15,.cls-16,.cls-17,.cls-19,.cls-29,.cls-4,.cls-8,.cls-9{font-family:MyriadPro-Regular, Myriad Pro;}.cls-5{letter-spacing:0em;}.cls-6{letter-spacing:-0.01em;}.cls-7{letter-spacing:0em;}.cls-11,.cls-14,.cls-16,.cls-19,.cls-8{fill:none;}.cls-8{stroke:#1c1b1a;stroke-width:0.5px;}.cls-11,.cls-9{font-size:29.55px;}.cls-10{letter-spacing:-0.02em;}.cls-11,.cls-14,.cls-16,.cls-19{stroke:#fff;}.cls-12,.cls-14{font-size:24.11px;}.cls-13{letter-spacing:-0.01em;}.cls-17,.cls-19,.cls-29{font-size:23.63px;}.cls-18{letter-spacing:0em;}.cls-20{letter-spacing:0em;}.cls-21{letter-spacing:0em;}.cls-22{letter-spacing:-0.01em;}.cls-23{letter-spacing:-0.01em;}.cls-24{letter-spacing:0em;}.cls-25{letter-spacing:0.01em;}.cls-26{letter-spacing:0em;}.cls-27{letter-spacing:-0.03em;}.cls-28{letter-spacing:-0.01em;}</style></defs><rect class="cls-1" x="0.5" y="0.5" width="948" height="39.77"/><rect class="cls-2" x="0.5" y="40.27" width="237" height="144.3"/><rect class="cls-2" x="237.5" y="40.27" width="237" height="144.3"/><rect class="cls-2" x="474.5" y="40.27" width="237" height="144.3"/><rect class="cls-2" x="711.5" y="40.27" width="237" height="144.3"/><rect class="cls-1" x="0.5" y="185.59" width="237" height="144.3"/><rect class="cls-1" x="237.5" y="185.59" width="237" height="144.3"/><rect class="cls-1" x="474.5" y="185.59" width="237" height="144.3"/><rect class="cls-1" x="711.5" y="185.59" width="237" height="144.3"/><rect class="cls-3" x="0.5" y="329.89" width="237" height="144.3"/><rect class="cls-3" x="237.5" y="329.89" width="237" height="144.3"/><rect class="cls-3" x="474.5" y="329.89" width="237" height="144.3"/><rect class="cls-3" x="711.5" y="329.89" width="237" height="144.3"/><rect class="cls-1" x="0.5" y="473.18" width="237" height="144.3"/><rect class="cls-1" x="237.5" y="474.2" width="237" height="144.3"/><rect class="cls-1" x="474.5" y="474.2" width="237" height="144.3"/><rect class="cls-1" x="711.5" y="473.18" width="237" height="144.3"/><text x="-32.5" y="-90.5"/><text class="cls-4" transform="translate(369.27 28.19) scale(1.18 1)">Lista de estudia<tspan class="cls-5" x="154.21" y="0">n</tspan><tspan class="cls-6" x="167.36" y="0">t</tspan><tspan class="cls-7" x="175.12" y="0">es</tspan></text><text class="cls-4" transform="translate(369.27 28.19) scale(1.18 1)">Lista de estudia<tspan class="cls-5" x="154.21" y="0">n</tspan><tspan class="cls-6" x="167.36" y="0">t</tspan><tspan class="cls-7" x="175.12" y="0">es</tspan></text><text class="cls-8" transform="translate(369.27 28.19) scale(1.18 1)">Lista de estudia<tspan class="cls-5" x="154.21" y="0">n</tspan><tspan class="cls-6" x="167.36" y="0">t</tspan><tspan class="cls-7" x="175.12" y="0">es</tspan></text><text class="cls-9" transform="translate(100.93 118.47) scale(1.18 1)">N<tspan class="cls-10" x="19.44" y="0">o</tspan><tspan x="34.95" y="0">.</tspan></text><text class="cls-11" transform="translate(100.93 118.47) scale(1.18 1)">N<tspan class="cls-10" x="19.44" y="0">o</tspan><tspan x="34.95" y="0">.</tspan></text><text class="cls-12" transform="translate(307.29 118.73) scale(1.18 1)">Nomb<tspan class="cls-13" x="62.92" y="0">r</tspan><tspan x="70.56" y="0">e</tspan></text><text class="cls-14" transform="translate(307.29 118.73) scale(1.18 1)">Nomb<tspan class="cls-13" x="62.92" y="0">r</tspan><tspan x="70.56" y="0">e</tspan></text><text class="cls-15" transform="translate(566.46 118.47) scale(1.18 1)"><tspan class="cls-5">E</tspan><tspan x="11.64" y="0">dad</tspan></text><text class="cls-16" transform="translate(566.46 118.47) scale(1.18 1)"><tspan class="cls-5">E</tspan><tspan x="11.64" y="0">dad</tspan></text><text class="cls-17" transform="translate(797.83 123.91) scale(1.19 1)">G<tspan class="cls-18" x="15.26" y="0">r</tspan><tspan x="22.87" y="0">ado</tspan></text><text class="cls-19" transform="translate(797.83 123.91) scale(1.19 1)">G<tspan class="cls-18" x="15.26" y="0">r</tspan><tspan x="22.87" y="0">ado</tspan></text><text class="cls-4" transform="translate(103.31 255) scale(1.18 1)">1</text><text class="cls-4" transform="translate(111.73 402.04) scale(1.18 1)">2</text><text class="cls-4" transform="translate(112.31 553.4) scale(1.18 1)">3</text><text class="cls-4" transform="translate(294.11 264.98) scale(1.18 1)"><tspan class="cls-20">A</tspan><tspan class="cls-21" x="14.53" y="0">na </tspan><tspan class="cls-22" x="44.33" y="0">L</tspan><tspan x="55.26" y="0">ópez</tspan></text><text class="cls-4" transform="translate(293.1 407.94) scale(1.18 1)"><tspan class="cls-23">C</tspan><tspan class="cls-21" x="13.67" y="0">a</tspan><tspan class="cls-24" x="25.17" y="0">r</tspan><tspan x="33.07" y="0">los Ruiz</tspan></text><text class="cls-4" transform="translate(288.55 553.67) scale(1.18 1)"><tspan class="cls-25">M</tspan><tspan x="19.33" y="0">a</tspan><tspan class="cls-26" x="30.83" y="0">r</tspan><tspan x="38.73" y="0">ía </tspan><tspan class="cls-27" x="60.87" y="0">P</tspan><tspan x="72.97" y="0">é</tspan><tspan class="cls-28" x="84.92" y="0">r</tspan><tspan class="cls-21" x="92.48" y="0">ez</tspan></text><text class="cls-4" transform="translate(574.41 264.98) scale(1.18 1)">20</text><text class="cls-4" transform="translate(575.68 407.94) scale(1.18 1)">22</text><text class="cls-4" transform="translate(575.68 558.04) scale(1.18 1)">19</text><text class="cls-29" transform="translate(825.6 268.42) scale(1.19 1)">3°</text><text class="cls-29" transform="translate(821.07 409.99) scale(1.19 1)">4°</text><text class="cls-29" transform="translate(821.49 554.04) scale(1.19 1)">2°</text></svg>